<mxfile host="app.diagrams.net" modified="2021-02-16T13:57:06.380Z" agent="5.0 (Windows NT 10.0; Win64; x64) AppleWebKit/537.36 (KHTML, like Gecko) Chrome/86.0.4240.198 Safari/537.36" etag="7k_emi10Litj5pvgIvDS" version="14.2.7" type="github">
  <diagram id="oIiqI-zAUA6qiG0tFypu" name="Page-1">
    <mxGraphModel dx="1422" dy="794" grid="1" gridSize="10" guides="1" tooltips="1" connect="1" arrows="1" fold="1" page="1" pageScale="1" pageWidth="827" pageHeight="1169" math="0" shadow="0">
      <root>
        <mxCell id="0" />
        <mxCell id="1" parent="0" />
        <mxCell id="UkmssfPILvKVZBpDlB79-1" value="" style="rounded=1;whiteSpace=wrap;html=1;arcSize=3;strokeWidth=1;glass=0;shadow=0;sketch=1;fillColor=#f9f7ed;strokeColor=#36393d;" vertex="1" parent="1">
          <mxGeometry x="170" y="180" width="360" height="100" as="geometry" />
        </mxCell>
        <mxCell id="UkmssfPILvKVZBpDlB79-3" value="添加左侧作者个人微信" style="text;html=1;strokeColor=none;fillColor=none;align=center;verticalAlign=middle;whiteSpace=wrap;rounded=0;shadow=0;glass=0;sketch=1;" vertex="1" parent="1">
          <mxGeometry x="285" y="196" width="125" height="20" as="geometry" />
        </mxCell>
        <mxCell id="UkmssfPILvKVZBpDlB79-4" value="备注「&lt;font color=&quot;#ff0000&quot;&gt;&lt;b&gt;加群&lt;/b&gt;&lt;/font&gt;」，带你进入高手如云交流社群" style="text;html=1;strokeColor=none;fillColor=none;align=center;verticalAlign=middle;whiteSpace=wrap;rounded=0;shadow=0;glass=0;sketch=1;" vertex="1" parent="1">
          <mxGeometry x="280" y="220" width="240" height="20" as="geometry" />
        </mxCell>
        <mxCell id="UkmssfPILvKVZBpDlB79-5" value="备注「&lt;font color=&quot;#ff0000&quot;&gt;&lt;b&gt;gogogo&lt;/b&gt;&lt;/font&gt;」，送一份精选Go学习宝典" style="text;html=1;strokeColor=none;fillColor=none;align=center;verticalAlign=middle;whiteSpace=wrap;rounded=0;shadow=0;glass=0;sketch=1;" vertex="1" parent="1">
          <mxGeometry x="279" y="240" width="240" height="20" as="geometry" />
        </mxCell>
        <mxCell id="UkmssfPILvKVZBpDlB79-6" value="" style="shape=image;verticalLabelPosition=bottom;labelBackgroundColor=#ffffff;verticalAlign=top;aspect=fixed;imageAspect=0;image=data:image/jpeg,/9j/4AAQSkZJRgABAQAAAQABAAD/2wBDAAMCAgMCAgMDAwMEAwMEBQgFBQQEBQoHBwYIDAoMDAsKCwsNDhIQDQ4RDgsLEBYQERMUFRUVDA8XGBYUGBIUFRT/2wBDAQMEBAUEBQkFBQkUDQsNFBQUFBQUFBQUFBQUFBQUFBQUFBQUFBQUFBQUFBQUFBQUFBQUFBQUFBQUFBQUFBQUFBT/wAARCAGuAa4DASIAAhEBAxEB/8QAHwAAAQUBAQEBAQEAAAAAAAAAAAECAwQFBgcICQoL/8QAtRAAAgEDAwIEAwUFBAQAAAF9AQIDAAQRBRIhMUEGE1FhByJxFDKBkaEII0KxwRVS0fAkM2JyggkKFhcYGRolJicoKSo0NTY3ODk6Q0RFRkdISUpTVFVWV1hZWmNkZWZnaGlqc3R1dnd4eXqDhIWGh4iJipKTlJWWl5iZmqKjpKWmp6ipqrKztLW2t7i5usLDxMXGx8jJytLT1NXW19jZ2uHi4+Tl5ufo6erx8vP09fb3+Pn6/8QAHwEAAwEBAQEBAQEBAQAAAAAAAAECAwQFBgcICQoL/8QAtREAAgECBAQDBAcFBAQAAQJ3AAECAxEEBSExBhJBUQdhcRMiMoEIFEKRobHBCSMzUvAVYnLRChYkNOEl8RcYGRomJygpKjU2Nzg5OkNERUZHSElKU1RVVldYWVpjZGVmZ2hpanN0dXZ3eHl6goOEhYaHiImKkpOUlZaXmJmaoqOkpaanqKmqsrO0tba3uLm6wsPExcbHyMnK0tPU1dbX2Nna4uPk5ebn6Onq8vP09fb3+Pn6/9oADAMBAAIRAxEAPwD9U6KKKACiiigAooooAKKKKACiiigAooooAKKKKACiiigAooooAKKKKACiiigAooooAKKKKACiiigAooooAKKKKACiiigAooooAKKKKACiiigAooooAKKKKACiiigAooooAKKKKACiiigAooooAKKKKACiiuU+KXxS8MfBbwJqfjLxlqf9jeG9N8r7Xe/Z5Z/L8yVIk+SJWc5eRBwpxnJ4BNAHV0V8q/8AD0f9mL/opv8A5QNU/wDkaj/h6P8Asxf9FN/8oGqf/I1AH1VRXyr/AMPR/wBmL/opv/lA1T/5Go/4ej/sxf8ARTf/ACgap/8AI1AH1VRXyr/w9H/Zi/6Kb/5QNU/+RqP+Ho/7MX/RTf8Aygap/wDI1AH1VRXyr/w9H/Zi/wCim/8AlA1T/wCRqP8Ah6P+zF/0U3/ygap/8jUAfVVFeVfAv9qP4YftKf23/wAK48Tf8JH/AGL5H2//AEC6tfJ87zPK/wBfEm7PlSfdzjbzjIz1XxS+KXhj4LeBNT8ZeMtT/sbw3pvlfa737PLP5fmSpEnyRKznLyIOFOM5PAJoA6uivlX/AIej/sxf9FN/8oGqf/I1fVVABRXz/wDFL9vX4E/Bbx3qfg3xl45/sbxJpvlfa7L+yL+fy/MiSVPnigZDlJEPDHGcHkEVyv8Aw9H/AGYv+im/+UDVP/kagD6qor5/+Fv7evwJ+NPjvTPBvg3xz/bPiTUvN+yWX9kX8HmeXE8r/PLAqDCRueWGcYHJAr6AoAKK+Vf+Ho/7MX/RTf8Aygap/wDI1e//AAt+KXhj40+BNM8ZeDdT/tnw3qXm/ZL37PLB5nlyvE/ySqrjDxuOVGcZHBBoA6uivKvjp+1H8MP2a/7E/wCFj+Jv+Ec/trz/ALB/oF1ded5Pl+b/AKiJ9uPNj+9jO7jODjlPhb+3r8CfjT470zwb4N8c/wBs+JNS837JZf2RfweZ5cTyv88sCoMJG55YZxgckCgD6Aoor5V/4ej/ALMX/RTf/KBqn/yNQB9VUVynwt+KXhj40+BNM8ZeDdT/ALZ8N6l5v2S9+zyweZ5crxP8kqq4w8bjlRnGRwQa6ugAooooAKKKKACivKvjp+1H8MP2a/7E/wCFj+Jv+Ec/trz/ALB/oF1ded5Pl+b/AKiJ9uPNj+9jO7jODjyr/h6P+zF/0U3/AMoGqf8AyNQB9VUV8q/8PR/2Yv8Aopv/AJQNU/8Akaj/AIej/sxf9FN/8oGqf/I1AH1VRXyr/wAPR/2Yv+im/wDlA1T/AORqP+Ho/wCzF/0U3/ygap/8jUAfVVFfP/wt/b1+BPxp8d6Z4N8G+Of7Z8Sal5v2Sy/si/g8zy4nlf55YFQYSNzywzjA5IFfQFABRRXz/wDFL9vX4E/Bbx3qfg3xl45/sbxJpvlfa7L+yL+fy/MiSVPnigZDlJEPDHGcHkEUAfQFFfKv/D0f9mL/AKKb/wCUDVP/AJGo/wCHo/7MX/RTf/KBqn/yNQB9VUV8q/8AD0f9mL/opv8A5QNU/wDkaj/h6P8Asxf9FN/8oGqf/I1AH1VRXyr/AMPR/wBmL/opv/lA1T/5Go/4ej/sxf8ARTf/ACgap/8AI1AH1VRXyr/w9H/Zi/6Kb/5QNU/+RqP+Ho/7MX/RTf8Aygap/wDI1AH1VRRRQAUUUUAFFFFABXyr/wAFR/8AkxP4m/8AcM/9OlpX1VXyr/wVH/5MT+Jv/cM/9OlpQB+ANFFf1UUAfyr0V/VRRQB/KvRX9VFFAH8q9Ff1UV+AP/BUf/k+z4m/9wz/ANNdpQB9Vf8ABDH/AJrZ/wBwT/2/r6q/4Kj/APJifxN/7hn/AKdLSvlX/ghj/wA1s/7gn/t/X6qUAfyr1/VRRX8q9AH1V/wVH/5Ps+Jv/cM/9NdpXyrRX6qf8EMf+a2f9wT/ANv6APlX/glx/wAn2fDL/uJ/+mu7r9/qKKAP5V6/f7/glx/yYn8Mv+4n/wCnS7r6qr8Af+Co/wDyfZ8Tf+4Z/wCmu0oA+qv+C53/ADRP/uN/+2FfKv8AwS4/5Ps+GX/cT/8ATXd18q19Vf8ABLj/AJPs+GX/AHE//TXd0Afv9X8q9f1UUUAfKv8AwS4/5MT+GX/cT/8ATpd19VUUUAFFfKv/AAVH/wCTE/ib/wBwz/06WlfgDQB/VRRX8q9fv9/wS4/5MT+GX/cT/wDTpd0AfKv/AAXO/wCaJ/8Acb/9sK/Kuv1U/wCC53/NE/8AuN/+2FflXQAUUV/VRQB/KvRX9VFflX/wXO/5on/3G/8A2woA+Vf+CXH/ACfZ8Mv+4n/6a7uv3+r+VeigD+qivwB/4Kj/APJ9nxN/7hn/AKa7Sv3+r8Af+Co//J9nxN/7hn/prtKAPlWiv1U/4IY/81s/7gn/ALf1+qlAH8q9Ff1UUUAfyr0V/VRRQB/KvRX7/f8ABUf/AJMT+Jv/AHDP/TpaV+ANAH9VFFFFABRRRQAUUUUAFfKv/BUf/kxP4m/9wz/06WlfVVfKv/BUf/kxP4m/9wz/ANOlpQB+ANf1UV/KvX9VFAH5Aft6/t6/Hb4LftY+OfBvg3xz/Y3hvTfsP2Sy/siwn8vzLC3lf55YGc5eRzyxxnA4AFeAf8PR/wBp3/opv/lA0v8A+RqP+Co//J9nxN/7hn/prtK+VaAPqr/h6P8AtO/9FN/8oGl//I1H/D0f9p3/AKKb/wCUDS//AJGr5VooA/qor8Af+Co//J9nxN/7hn/prtK/f6vwB/4Kj/8AJ9nxN/7hn/prtKAPqr/ghj/zWz/uCf8At/X6qV+Vf/BDH/mtn/cE/wDb+vv/APaj+On/AAzX8CfE3xH/ALE/4SP+xfsv/Es+1/ZfO866ig/1ux9uPN3fdOduOM5AB6rXyr/w64/Zi/6Jl/5X9U/+Sa+Vf+H53/VE/wDy6/8A7io/4fnf9UT/APLr/wDuKgD6q/4dcfsxf9Ey/wDK/qn/AMk18q/tz/8AGtf/AIQn/hnH/i3X/Cafbv7e/wCYp9s+x/Z/s3/H95/l7Ptdx/q9u7f82dq4P+H53/VE/wDy6/8A7io/5TR/9Ud/4Vr/ANxz+0f7Q/8AAbyvL+wf7e7zf4dvzAHyr/w9H/ad/wCim/8AlA0v/wCRqP8Ah6P+07/0U3/ygaX/API1fVX/AA4x/wCq2f8Alqf/AHbR/wAOMf8Aqtn/AJan/wB20AfKv/D0f9p3/opv/lA0v/5Gr5/+KXxS8T/Gnx3qfjLxlqf9s+JNS8r7Xe/Z4oPM8uJIk+SJVQYSNBwozjJ5JNcrX3/+y5/wSk/4aU+BPhn4j/8AC0f+Ec/tr7V/xLP+Ee+1eT5N1LB/rftSbs+Vu+6Mbsc4yQA/4JSfsufDD9pT/haP/Cx/DP8Awkf9i/2X9g/0+6tfJ877X5v+olTdnyo/vZxt4xk5/Sn4W/sFfAn4LeO9M8ZeDfA39jeJNN837Je/2vfz+X5kTxP8ks7IcpI45U4zkcgGviv/AJQuf9Vi/wCFlf8AcD/s7+z/APwJ83zPt/8AsbfK/i3fKf8AD87/AKon/wCXX/8AcVAH6qUV+Vf/AA/O/wCqJ/8Al1//AHFX6qUAfkB+3r+3r8dvgt+1j458G+DfHP8AY3hvTfsP2Sy/siwn8vzLC3lf55YGc5eRzyxxnA4AFeAf8PR/2nf+im/+UDS//kavv/8Aaj/4JSf8NKfHbxN8R/8AhaP/AAjn9tfZf+JZ/wAI99q8nybWKD/W/ak3Z8rd90Y3Y5xk/AH7c/7DH/DF3/CE/wDFbf8ACY/8JL9u/wCYT9h+zfZ/s/8A03l37vtHtjb3zwAcp8Uv29fjt8afAmp+DfGXjn+2fDepeV9rsv7IsIPM8uVJU+eKBXGHjQ8MM4weCRXgFeq/sufAv/hpT47eGfhx/bf/AAjn9tfav+Jn9k+1eT5NrLP/AKrem7PlbfvDG7POMH7/AP8Ahxj/ANVs/wDLU/8Au2gD8q69/wDhb+3r8dvgt4E0zwb4N8c/2N4b03zfsll/ZFhP5fmSvK/zywM5y8jnljjOBwAK+1f+HGP/AFWz/wAtT/7to/4cY/8AVbP/AC1P/u2gA/YY/wCNlH/Cbf8ADR3/ABcX/hC/sP8AYP8AzC/sf2z7R9p/48fI8zf9kt/9Zu27PlxubP1V/wAOuP2Yv+iZf+V/VP8A5Jo/YY/YY/4Yu/4Tb/itv+Ex/wCEl+w/8wn7D9m+z/aP+m8u/d9o9sbe+ePqqgD5V/4dcfsxf9Ey/wDK/qn/AMk19VUV+Vf/AA/O/wCqJ/8Al1//AHFQB+qlflX/AMFzv+aJ/wDcb/8AbCj/AIfnf9UT/wDLr/8AuKvlX9uf9uf/AIbR/wCEJ/4on/hDv+Ea+3f8xb7d9p+0fZ/+mEWzb9n987u2OQD5Vor1X9lz4F/8NKfHbwz8OP7b/wCEc/tr7V/xM/sn2ryfJtZZ/wDVb03Z8rb94Y3Z5xg/f/8Aw4x/6rZ/5an/AN20AfqpX4A/8FR/+T7Pib/3DP8A012lfv8AV+AP/BUf/k+z4m/9wz/012lAH1V/wQx/5rZ/3BP/AG/r7U/b1+KXif4LfsneOfGXg3U/7G8Sab9h+yXv2eKfy/Mv7eJ/klVkOUkccqcZyOQDXxX/AMEMf+a2f9wT/wBv6+qv+Co//JifxN/7hn/p0tKAPyr/AOHo/wC07/0U3/ygaX/8jUf8PR/2nf8Aopv/AJQNL/8AkavlWigD6q/4ej/tO/8ARTf/ACgaX/8AI1ff/wDwSk/aj+J/7Sn/AAtH/hY/ib/hI/7F/sv7B/oFra+T532vzf8AURJuz5Uf3s428Yyc/itX6qf8EMf+a2f9wT/2/oA+qv8AgqP/AMmJ/E3/ALhn/p0tK/AGv3+/4Kj/APJifxN/7hn/AKdLSvwBoA/qoooooAKKKKACiiigAr5V/wCCo/8AyYn8Tf8AuGf+nS0r6qr5V/4Kj/8AJifxN/7hn/p0tKAPwBr+qiv5V6/qooA/AH/gqP8A8n2fE3/uGf8AprtK+Va+qv8AgqP/AMn2fE3/ALhn/prtK+VaACiiigD+qivwB/4Kj/8AJ9nxN/7hn/prtK/f6vwB/wCCo/8AyfZ8Tf8AuGf+mu0oA+qv+CGP/NbP+4J/7f19qft6/C3xP8af2TvHPg3wbpn9s+JNS+w/ZLL7RFB5nl39vK/zysqDCRueWGcYHJAr4r/4IY/81s/7gn/t/X6qUAfgD/w64/ad/wCiZf8Alf0v/wCSa+Va/qor+VegD3/4W/sFfHb40+BNM8ZeDfA39s+G9S837Je/2vYQeZ5crxP8ks6uMPG45UZxkcEGv0q/4JSfsufE/wDZr/4Wj/wsfwz/AMI5/bX9l/YP9PtbrzvJ+1+b/qJX2482P72M7uM4OPVf+CXH/Jifwy/7if8A6dLuvqqgDlPil8UvDHwW8Can4y8Zan/Y3hvTfK+13v2eWfy/MlSJPkiVnOXkQcKcZyeATXgH/D0f9mL/AKKb/wCUDVP/AJGo/wCCo/8AyYn8Tf8AuGf+nS0r8AaACv3+/wCCXH/Jifwy/wC4n/6dLuvwBr9/v+CXH/Jifwy/7if/AKdLugD5V/4Lnf8ANE/+43/7YV+Vdfqp/wAFzv8Amif/AHG//bCvyroAK/qor+Vev6qKAPn/AOKX7evwJ+C3jvU/BvjLxz/Y3iTTfK+12X9kX8/l+ZEkqfPFAyHKSIeGOM4PIIr81v8Agq3+1H8MP2lP+FXf8K48Tf8ACR/2L/an2/8A0C6tfJ877J5X+viTdnypPu5xt5xkZ8q/4Kj/APJ9nxN/7hn/AKa7SvlWgD3/APYK+KXhj4LftY+BvGXjLU/7G8N6b9u+13v2eWfy/MsLiJPkiVnOXkQcKcZyeATX6/8A/D0f9mL/AKKb/wCUDVP/AJGr8AaKAP3+/wCHo/7MX/RTf/KBqn/yNR/w9H/Zi/6Kb/5QNU/+Rq/AGigD+lP4F/tR/DD9pT+2/wDhXHib/hI/7F8j7f8A6BdWvk+d5nlf6+JN2fKk+7nG3nGRn1Wvyr/4IY/81s/7gn/t/X6qUAFfgD/w64/ad/6Jl/5X9L/+Sa/f6igD+YH4pfC3xP8ABbx3qfg3xlpn9jeJNN8r7XZfaIp/L8yJJU+eJmQ5SRDwxxnB5BFcrX1V/wAFR/8Ak+z4m/8AcM/9NdpXyrQB7/8AsFfFLwx8Fv2sfA3jLxlqf9jeG9N+3fa737PLP5fmWFxEnyRKznLyIOFOM5PAJr9f/wDh6P8Asxf9FN/8oGqf/I1fgDRQB/VRX4A/8FR/+T7Pib/3DP8A012lfv8AV+AP/BUf/k+z4m/9wz/012lAH1V/wQx/5rZ/3BP/AG/r6q/4Kj/8mJ/E3/uGf+nS0r5V/wCCGP8AzWz/ALgn/t/X1V/wVH/5MT+Jv/cM/wDTpaUAfgDRRRQAV+qn/BDH/mtn/cE/9v6/Kuv1U/4IY/8ANbP+4J/7f0AfVX/BUf8A5MT+Jv8A3DP/AE6WlfgDX7/f8FR/+TE/ib/3DP8A06WlfgDQB/VRRRRQAUUUUAFFFFABXyr/AMFR/wDkxP4m/wDcM/8ATpaV9VV8q/8ABUf/AJMT+Jv/AHDP/TpaUAfgDX9VFfyr19Vf8PR/2nf+im/+UDS//kagD9/qK/AH/h6P+07/ANFN/wDKBpf/AMjUf8PR/wBp3/opv/lA0v8A+RqAP3+or8Af+Ho/7Tv/AEU3/wAoGl//ACNR/wAPR/2nf+im/wDlA0v/AORqAP3+r8Af+Co//J9nxN/7hn/prtKP+Ho/7Tv/AEU3/wAoGl//ACNXz/8AFL4peJ/jT471Pxl4y1P+2fEmpeV9rvfs8UHmeXEkSfJEqoMJGg4UZxk8kmgD9Kv+CGP/ADWz/uCf+39fqpX5V/8ABDH/AJrZ/wBwT/2/r7U/b1+KXif4LfsneOfGXg3U/wCxvEmm/Yfsl79nin8vzL+3if5JVZDlJHHKnGcjkA0AfQFFfgD/AMPR/wBp3/opv/lA0v8A+Rq/f6gAor8gP29f29fjt8Fv2sfHPg3wb45/sbw3pv2H7JZf2RYT+X5lhbyv88sDOcvI55Y4zgcACvoD/glJ+1H8T/2lP+Fo/wDCx/E3/CR/2L/Zf2D/AEC1tfJ877X5v+oiTdnyo/vZxt4xk5APv+ivn/8Ab1+KXif4LfsneOfGXg3U/wCxvEmm/Yfsl79nin8vzL+3if5JVZDlJHHKnGcjkA1+QP8Aw9H/AGnf+im/+UDS/wD5GoA/f6iivyA/b1/b1+O3wW/ax8c+DfBvjn+xvDem/Yfsll/ZFhP5fmWFvK/zywM5y8jnljjOBwAKAP1/or4A/wCCUn7UfxP/AGlP+Fo/8LH8Tf8ACR/2L/Zf2D/QLW18nzvtfm/6iJN2fKj+9nG3jGTn3/8Ab1+KXif4LfsneOfGXg3U/wCxvEmm/Yfsl79nin8vzL+3if5JVZDlJHHKnGcjkA0AfQFfyr19Vf8AD0f9p3/opv8A5QNL/wDkav1U/wCHXH7MX/RMv/K/qn/yTQAf8EuP+TE/hl/3E/8A06XdfVVfit+1H+1H8T/2Lvjt4m+DXwa8Tf8ACHfDbw19l/srRPsFrffZvtFrFdTfvrqKWZ901xK/zucbsDCgAfVX/BKT9qP4n/tKf8LR/wCFj+Jv+Ej/ALF/sv7B/oFra+T532vzf9REm7PlR/ezjbxjJyAeq/8ABUf/AJMT+Jv/AHDP/TpaV+ANfv8Af8FR/wDkxP4m/wDcM/8ATpaV+ANABX7/AH/BLj/kxP4Zf9xP/wBOl3R/w64/Zi/6Jl/5X9U/+Sa+AP2o/wBqP4n/ALF3x28TfBr4NeJv+EO+G3hr7L/ZWifYLW++zfaLWK6m/fXUUsz7priV/nc43YGFAAAPVf8Agud/zRP/ALjf/thXyr/wS4/5Ps+GX/cT/wDTXd19VfsMf8bKP+E2/wCGjv8Ai4v/AAhf2H+wf+YX9j+2faPtP/Hj5Hmb/slv/rN23Z8uNzZ9V/aj/Zc+GH7F3wJ8TfGX4NeGf+EO+JPhr7L/AGVrf2+6vvs32i6itZv3N1LLC+6G4lT50ON2RhgCAD7/AKK/AH/h6P8AtO/9FN/8oGl//I1fv9QB+AP/AAVH/wCT7Pib/wBwz/012lfKtfVX/BUf/k+z4m/9wz/012leq/8ABKT9lz4YftKf8LR/4WP4Z/4SP+xf7L+wf6fdWvk+d9r83/USpuz5Uf3s428YycgHwBRX6/ft6/sFfAn4LfsneOfGXg3wN/Y3iTTfsP2S9/te/n8vzL+3if5JZ2Q5SRxypxnI5ANfkDQB/VRX4A/8FR/+T7Pib/3DP/TXaV+/1fgD/wAFR/8Ak+z4m/8AcM/9NdpQB9Vf8EMf+a2f9wT/ANv6/VSv5rPgX+1H8T/2a/7b/wCFceJv+Ec/tryPt/8AoFrded5PmeV/r4n2482T7uM7uc4GPVf+Ho/7Tv8A0U3/AMoGl/8AyNQB+/1FfgD/AMPR/wBp3/opv/lA0v8A+RqP+Ho/7Tv/AEU3/wAoGl//ACNQB+/1FfgD/wAPR/2nf+im/wDlA0v/AORqP+Ho/wC07/0U3/ygaX/8jUAfqp/wVH/5MT+Jv/cM/wDTpaV+ANe//FL9vX47fGnwJqfg3xl45/tnw3qXlfa7L+yLCDzPLlSVPnigVxh40PDDOMHgkV4BQB/VRRRRQAUUUUAFFFFABXlX7UfwL/4aU+BPib4cf23/AMI5/bX2X/iZ/ZPtXk+TdRT/AOq3puz5W37wxuzzjB9VooA/Kv8A4cY/9Vs/8tT/AO7aP+HGP/VbP/LU/wDu2v1UooA/Kv8A4cY/9Vs/8tT/AO7aP+HGP/VbP/LU/wDu2vtT4pft6/An4LeO9T8G+MvHP9jeJNN8r7XZf2Rfz+X5kSSp88UDIcpIh4Y4zg8giur+Bf7Ufww/aU/tv/hXHib/AISP+xfI+3/6BdWvk+d5nlf6+JN2fKk+7nG3nGRkA+AP+HGP/VbP/LU/+7aP+HGP/VbP/LU/+7a/Sn4pfFLwx8FvAmp+MvGWp/2N4b03yvtd79nln8vzJUiT5IlZzl5EHCnGcngE14B/w9H/AGYv+im/+UDVP/kagD5V/wCHGP8A1Wz/AMtT/wC7aP8Ahxj/ANVs/wDLU/8Au2vqr/h6P+zF/wBFN/8AKBqn/wAjUf8AD0f9mL/opv8A5QNU/wDkagA/YY/YY/4Yu/4Tb/itv+Ex/wCEl+w/8wn7D9m+z/aP+m8u/d9o9sbe+ePVf2o/gX/w0p8CfE3w4/tv/hHP7a+y/wDEz+yfavJ8m6in/wBVvTdnytv3hjdnnGCfAv8Aaj+GH7Sn9t/8K48Tf8JH/Yvkfb/9AurXyfO8zyv9fEm7PlSfdzjbzjIz1XxS+KXhj4LeBNT8ZeMtT/sbw3pvlfa737PLP5fmSpEnyRKznLyIOFOM5PAJoA/Nb/hxj/1Wz/y1P/u2v1Ur5V/4ej/sxf8ARTf/ACgap/8AI1fVVAHwB+1H/wAEpP8AhpT47eJviP8A8LR/4Rz+2vsv/Es/4R77V5Pk2sUH+t+1Juz5W77oxuxzjJ9V/YY/YY/4Yu/4Tb/itv8AhMf+El+w/wDMJ+w/Zvs/2j/pvLv3faPbG3vnjqvil+3r8Cfgt471Pwb4y8c/2N4k03yvtdl/ZF/P5fmRJKnzxQMhykiHhjjODyCK5X/h6P8Asxf9FN/8oGqf/I1AHqv7UfwL/wCGlPgT4m+HH9t/8I5/bX2X/iZ/ZPtXk+TdRT/6rem7PlbfvDG7POMH4A/4cY/9Vs/8tT/7tr7U+Fv7evwJ+NPjvTPBvg3xz/bPiTUvN+yWX9kX8HmeXE8r/PLAqDCRueWGcYHJAr6AoA/Kv/h+d/1RP/y6/wD7ir4A/aj+On/DSnx28TfEf+xP+Ec/tr7L/wASz7X9q8nybWKD/W7E3Z8rd90Y3Y5xk+VUUAfVX7DH7c//AAxd/wAJt/xRP/CY/wDCS/Yf+Yt9h+zfZ/tH/TCXfu+0e2NvfPH1V/w3P/w8o/4xx/4Qn/hXX/Caf8zL/a39qfY/sf8Ap/8Ax7eRB5m/7J5f+sXbv3c7dp+APgX+y58T/wBpT+2/+FceGf8AhI/7F8j7f/p9ra+T53meV/r5U3Z8qT7ucbecZGfqr9lz9lz4n/sXfHbwz8ZfjL4Z/wCEO+G3hr7V/aut/b7W++zfaLWW1h/c2sssz7priJPkQ43ZOFBIAPVf+HGP/VbP/LU/+7a/VSvlX/h6P+zF/wBFN/8AKBqn/wAjV9VUAfgD/wAFR/8Ak+z4m/8AcM/9NdpR+wx+3P8A8MXf8Jt/xRP/AAmP/CS/Yf8AmLfYfs32f7R/0wl37vtHtjb3zwf8FR/+T7Pib/3DP/TXaV5V8C/2XPif+0p/bf8Awrjwz/wkf9i+R9v/ANPtbXyfO8zyv9fKm7PlSfdzjbzjIyAfVX7Uf/BVv/hpT4E+Jvhx/wAKu/4Rz+2vsv8AxM/+Eh+1eT5N1FP/AKr7Km7PlbfvDG7POMH4Ar3/AOKX7BXx2+C3gTU/GXjLwN/Y3hvTfK+13v8Aa9hP5fmSpEnyRTs5y8iDhTjOTwCa8AoA/qor4A/aj/4JSf8ADSnx28TfEf8A4Wj/AMI5/bX2X/iWf8I99q8nybWKD/W/ak3Z8rd90Y3Y5xk+q/8AD0f9mL/opv8A5QNU/wDkavf/AIW/FLwx8afAmmeMvBup/wBs+G9S837Je/Z5YPM8uV4n+SVVcYeNxyozjI4INAH5rf8AKFz/AKrF/wALK/7gf9nf2f8A+BPm+Z9v/wBjb5X8W75T/huf/h5R/wAY4/8ACE/8K6/4TT/mZf7W/tT7H9j/ANP/AOPbyIPM3/ZPL/1i7d+7nbtPqv8AwVb/AGXPif8AtKf8Ku/4Vx4Z/wCEj/sX+1Pt/wDp9ra+T532Tyv9fKm7PlSfdzjbzjIz8/8A7BX7BXx2+C37WPgbxl4y8Df2N4b037d9rvf7XsJ/L8ywuIk+SKdnOXkQcKcZyeATQB1f/DjH/qtn/lqf/dtH/D87/qif/l1//cVfqpX4A/8ADrj9p3/omX/lf0v/AOSaAPKv2o/jp/w0p8dvE3xH/sT/AIRz+2vsv/Es+1/avJ8m1ig/1uxN2fK3fdGN2OcZP3//AMEMf+a2f9wT/wBv6+Vf+HXH7Tv/AETL/wAr+l//ACTX1V+wx/xrX/4Tb/ho7/i3X/CafYf7B/5in2z7H9o+0/8AHj5/l7Ptdv8A6zbu3/Lna2AD6q/4Kj/8mJ/E3/uGf+nS0r8Aa/X79vX9vX4E/Gn9k7xz4N8G+Of7Z8Sal9h+yWX9kX8HmeXf28r/ADywKgwkbnlhnGByQK/IGgD+qivgD9qP/glJ/wANKfHbxN8R/wDhaP8Awjn9tfZf+JZ/wj32ryfJtYoP9b9qTdnyt33RjdjnGT6r/wAPR/2Yv+im/wDlA1T/AORq9/8Ahb8UvDHxp8CaZ4y8G6n/AGz4b1Lzfsl79nlg8zy5Xif5JVVxh43HKjOMjgg0Afmt/wAOMf8Aqtn/AJan/wB20f8ADjH/AKrZ/wCWp/8AdtfqpRQB+Vf/AA4x/wCq2f8Alqf/AHbR/wAOMf8Aqtn/AJan/wB21+qlfKv/AA9H/Zi/6Kb/AOUDVP8A5GoA+Vf+HGP/AFWz/wAtT/7to/4cY/8AVbP/AC1P/u2v0p+FvxS8MfGnwJpnjLwbqf8AbPhvUvN+yXv2eWDzPLleJ/klVXGHjccqM4yOCDXV0AflX/w4x/6rZ/5an/3bR/w4x/6rZ/5an/3bX6U/FL4peGPgt4E1Pxl4y1P+xvDem+V9rvfs8s/l+ZKkSfJErOcvIg4U4zk8AmvAP+Ho/wCzF/0U3/ygap/8jUAfVVFFFABRRRQAUUUUAFFFFABRRX8q9AH1V/wVH/5Ps+Jv/cM/9NdpX1V/wQx/5rZ/3BP/AG/r8q6KAP3+/wCCo/8AyYn8Tf8AuGf+nS0r8Aa+qv8Aglx/yfZ8Mv8AuJ/+mu7r9/qAP5V6K/qoooA/Kv8A4IY/81s/7gn/ALf19Vf8FR/+TE/ib/3DP/TpaV8q/wDBc7/mif8A3G//AGwr5V/4Jcf8n2fDL/uJ/wDpru6APlWv6qKK/lXoA+qv+Co//J9nxN/7hn/prtK+Va/f7/glx/yYn8Mv+4n/AOnS7r5V/wCC53/NE/8AuN/+2FAHyr/wS4/5Ps+GX/cT/wDTXd1+/wBX8q9FABRRX7/f8EuP+TE/hl/3E/8A06XdAHyr/wAEMf8Amtn/AHBP/b+vqr/gqP8A8mJ/E3/uGf8Ap0tK+Vf+C53/ADRP/uN/+2FflXQAV/VRX8q9FAH1V/wVH/5Ps+Jv/cM/9NdpX1V/wQx/5rZ/3BP/AG/r8q6KAP3+/wCCo/8AyYn8Tf8AuGf+nS0r8AaKKACv3+/4Jcf8mJ/DL/uJ/wDp0u6+qqKACivyr/4Lnf8ANE/+43/7YV+VdAH9VFFfyr1/VRQAV+Vf/Bc7/mif/cb/APbCvlX/AIKj/wDJ9nxN/wC4Z/6a7Svqr/ghj/zWz/uCf+39AH5V0V+/3/BUf/kxP4m/9wz/ANOlpX4A0AFfv9/wS4/5MT+GX/cT/wDTpd19VV+AP/BUf/k+z4m/9wz/ANNdpQB+/wBRX8q9fVX/AAS4/wCT7Phl/wBxP/013dAH7/V/KvX9VFFAHyr/AMEuP+TE/hl/3E//AE6XdfVVFflX/wAFzv8Amif/AHG//bCgD6q/4Kj/APJifxN/7hn/AKdLSvwBr6q/4Jcf8n2fDL/uJ/8Apru6/f6gAooooAKKKKACiiigAooooAK+Vf8Ah1x+zF/0TL/yv6p/8k19VUUAfzrft6/C3wx8Fv2sfHPg3wbpn9jeG9N+w/ZLL7RLP5fmWFvK/wA8rM5y8jnljjOBwAK8Ar9qf2o/+CUn/DSnx28TfEf/AIWj/wAI5/bX2X/iWf8ACPfavJ8m1ig/1v2pN2fK3fdGN2OcZPlX/DjH/qtn/lqf/dtAH5q/C34peJ/gt470zxl4N1P+xvEmm+b9kvfs8U/l+ZE8T/JKrIcpI45U4zkcgGvoD/h6P+07/wBFN/8AKBpf/wAjV9Vf8OMf+q2f+Wp/920f8OMf+q2f+Wp/920AfKv/AA9H/ad/6Kb/AOUDS/8A5Go/4ej/ALTv/RTf/KBpf/yNXyrX3/8Asuf8EpP+GlPgT4Z+I/8AwtH/AIRz+2vtX/Es/wCEe+1eT5N1LB/rftSbs+Vu+6Mbsc4yQD1X9hj/AI2Uf8Jt/wANHf8AFxf+EL+w/wBg/wDML+x/bPtH2n/jx8jzN/2S3/1m7bs+XG5s/anwt/YK+BPwW8d6Z4y8G+Bv7G8Sab5v2S9/te/n8vzInif5JZ2Q5SRxypxnI5ANfFf/AChc/wCqxf8ACyv+4H/Z39n/APgT5vmfb/8AY2+V/Fu+X1X9lz/gq3/w0p8dvDPw4/4Vd/wjn9tfav8AiZ/8JD9q8nybWWf/AFX2VN2fK2/eGN2ecYIB9/1/KvX9VFfyr0Afv9/wS4/5MT+GX/cT/wDTpd18q/8ABc7/AJon/wBxv/2wryr9lz/gq3/wzX8CfDPw4/4Vd/wkf9i/av8AiZ/8JD9l87zrqWf/AFX2V9uPN2/eOdueM4HlX7c/7c//AA2j/wAIT/xRP/CHf8I19u/5i3277T9o+z/9MItm37P753dscgHKfsFfC3wx8af2sfA3g3xlpn9s+G9S+3fa7L7RLB5nl2FxKnzxMrjDxoeGGcYPBIr9f/8Ah1x+zF/0TL/yv6p/8k1+Vf8AwS4/5Ps+GX/cT/8ATXd1+/1AH8q9fv8Af8EuP+TE/hl/3E//AE6XdfgDX7/f8EuP+TE/hl/3E/8A06XdAHyr/wAFzv8Amif/AHG//bCvir9gr4W+GPjT+1j4G8G+MtM/tnw3qX277XZfaJYPM8uwuJU+eJlcYeNDwwzjB4JFfav/AAXO/wCaJ/8Acb/9sK+AP2XPjp/wzX8dvDPxH/sT/hI/7F+1f8Sz7X9l87zrWWD/AFux9uPN3fdOduOM5AB+1P8Aw64/Zi/6Jl/5X9U/+SaP+HXH7MX/AETL/wAr+qf/ACTXyr/w/O/6on/5df8A9xV+qlAHyr/w64/Zi/6Jl/5X9U/+SaP+HXH7MX/RMv8Ayv6p/wDJNfVVFAHyr/w64/Zi/wCiZf8Alf1T/wCSaP8Ah1x+zF/0TL/yv6p/8k19VUUAfgD/AMPR/wBp3/opv/lA0v8A+Rq/X79gr4peJ/jT+yd4G8ZeMtT/ALZ8Sal9u+13v2eKDzPLv7iJPkiVUGEjQcKM4yeSTX869ff/AOy5/wAFW/8Ahmv4E+Gfhx/wq7/hI/7F+1f8TP8A4SH7L53nXUs/+q+yvtx5u37xztzxnAAPVf8Agud/zRP/ALjf/thX5V1+qn/KaP8A6o7/AMK1/wC45/aP9of+A3leX9g/293m/wAO35vKv2o/+CUn/DNfwJ8TfEf/AIWj/wAJH/Yv2X/iWf8ACPfZfO866ig/1v2p9uPN3fdOduOM5AB8AV9Vf8PR/wBp3/opv/lA0v8A+Rq+VaKAP2p/Zc/Zc+GH7aPwJ8M/GX4y+Gf+Ex+JPiX7V/aut/b7qx+0/Z7qW1h/c2ssUKbYbeJPkQZ25OWJJ+qvgX+y58MP2a/7b/4Vx4Z/4Rz+2vI+3/6fdXXneT5nlf6+V9uPNk+7jO7nOBj8q/2XP+Crf/DNfwJ8M/Dj/hV3/CR/2L9q/wCJn/wkP2XzvOupZ/8AVfZX2483b945254zgff/AOwx+3P/AMNo/wDCbf8AFE/8Id/wjX2H/mLfbvtP2j7R/wBMItm37P753dscgHv/AMUvhb4Y+NPgTU/BvjLTP7Z8N6l5X2uy+0SweZ5cqSp88TK4w8aHhhnGDwSK8A/4dcfsxf8ARMv/ACv6p/8AJNfVVFABX4A/8FR/+T7Pib/3DP8A012lfVX/AA/O/wCqJ/8Al1//AHFR/wAMMf8ADyj/AIyO/wCE2/4V1/wmn/Mtf2T/AGp9j+x/6B/x8+fB5m/7J5n+rXbv287dxAPKv+CUn7Lnww/aU/4Wj/wsfwz/AMJH/Yv9l/YP9PurXyfO+1+b/qJU3Z8qP72cbeMZOf0p+Fv7BXwJ+C3jvTPGXg3wN/Y3iTTfN+yXv9r38/l+ZE8T/JLOyHKSOOVOM5HIBr4r/wCULn/VYv8AhZX/AHA/7O/s/wD8CfN8z7f/ALG3yv4t3y+q/suf8FW/+GlPjt4Z+HH/AAq7/hHP7a+1f8TP/hIftXk+Tayz/wCq+ypuz5W37wxuzzjBAPv+iiigAr8q/wDgud/zRP8A7jf/ALYV+qlfKv7c/wCwx/w2j/whP/Fbf8Id/wAI19u/5hP277T9o+z/APTeLZt+z++d3bHIB+Ffwt+KXif4LeO9M8ZeDdT/ALG8Sab5v2S9+zxT+X5kTxP8kqshykjjlTjORyAa+gP+Ho/7Tv8A0U3/AMoGl/8AyNX1V/w4x/6rZ/5an/3bR/w4x/6rZ/5an/3bQB+qlFFFABRRRQAUUUUAFcp8Uvil4Y+C3gTU/GXjLU/7G8N6b5X2u9+zyz+X5kqRJ8kSs5y8iDhTjOTwCa6uvlX/AIKj/wDJifxN/wC4Z/6dLSgA/wCHo/7MX/RTf/KBqn/yNR/w9H/Zi/6Kb/5QNU/+Rq/AGigD+n34W/FLwx8afAmmeMvBup/2z4b1Lzfsl79nlg8zy5Xif5JVVxh43HKjOMjgg1yvx0/aj+GH7Nf9if8ACx/E3/COf215/wBg/wBAurrzvJ8vzf8AURPtx5sf3sZ3cZwceVf8EuP+TE/hl/3E/wD06XdfKv8AwXO/5on/ANxv/wBsKAPtT4W/t6/An40+O9M8G+DfHP8AbPiTUvN+yWX9kX8HmeXE8r/PLAqDCRueWGcYHJAr6Ar8Af8Aglx/yfZ8Mv8AuJ/+mu7r9/qAP5V6/X79gr9vX4E/Bb9k7wN4N8ZeOf7G8Sab9u+12X9kX8/l+Zf3EqfPFAyHKSIeGOM4PIIr8gaKAP1U/bn/AONlH/CE/wDDOP8AxcX/AIQv7d/b3/ML+x/bPs/2b/j+8jzN/wBkuP8AV7tuz5sblzyn7BX7BXx2+C37WPgbxl4y8Df2N4b037d9rvf7XsJ/L8ywuIk+SKdnOXkQcKcZyeATXV/8EMf+a2f9wT/2/r9VKACv5V6/qor+VegAr1X4F/sufE/9pT+2/wDhXHhn/hI/7F8j7f8A6fa2vk+d5nlf6+VN2fKk+7nG3nGRnyqv1U/4IY/81s/7gn/t/QByn7BX7BXx2+C37WPgbxl4y8Df2N4b037d9rvf7XsJ/L8ywuIk+SKdnOXkQcKcZyeATX6/0UUAfyr1+v37BX7evwJ+C37J3gbwb4y8c/2N4k037d9rsv7Iv5/L8y/uJU+eKBkOUkQ8McZweQRX5A0UAfqp+3P/AMbKP+EJ/wCGcf8Ai4v/AAhf27+3v+YX9j+2fZ/s3/H95Hmb/slx/q923Z82Ny5+Vf8Ah1x+07/0TL/yv6X/APJNfVX/AAQx/wCa2f8AcE/9v6/VSgD8Af8Ah1x+07/0TL/yv6X/APJNfqp/w9H/AGYv+im/+UDVP/kavqqv5V6AP6ffhb8UvDHxp8CaZ4y8G6n/AGz4b1Lzfsl79nlg8zy5Xif5JVVxh43HKjOMjgg1yvx0/aj+GH7Nf9if8LH8Tf8ACOf215/2D/QLq687yfL83/URPtx5sf3sZ3cZwceVf8EuP+TE/hl/3E//AE6XdfKv/Bc7/mif/cb/APbCgD7U+Fv7evwJ+NPjvTPBvg3xz/bPiTUvN+yWX9kX8HmeXE8r/PLAqDCRueWGcYHJAr6Ar8Af+CXH/J9nwy/7if8A6a7uv3+oA/lXooooA+//APglJ+1H8MP2a/8AhaP/AAsfxN/wjn9tf2X9g/0C6uvO8n7X5v8AqIn2482P72M7uM4OPqr9qP8Aaj+GH7aPwJ8TfBr4NeJv+Ex+JPiX7L/ZWifYLqx+0/Z7qK6m/fXUUUKbYbeV/ncZ24GWIB/Favqr/glx/wAn2fDL/uJ/+mu7oAP+HXH7Tv8A0TL/AMr+l/8AyTXyrX9VFfyr0Ae//C39gr47fGnwJpnjLwb4G/tnw3qXm/ZL3+17CDzPLleJ/klnVxh43HKjOMjgg1+lX/BKT9lz4n/s1/8AC0f+Fj+Gf+Ec/tr+y/sH+n2t153k/a/N/wBRK+3Hmx/exndxnBx6r/wS4/5MT+GX/cT/APTpd19VUAcp8Uvil4Y+C3gTU/GXjLU/7G8N6b5X2u9+zyz+X5kqRJ8kSs5y8iDhTjOTwCa8A/4ej/sxf9FN/wDKBqn/AMjUf8FR/wDkxP4m/wDcM/8ATpaV+ANABX6/fsFft6/An4LfsneBvBvjLxz/AGN4k037d9rsv7Iv5/L8y/uJU+eKBkOUkQ8McZweQRX5A0UAfqp+3P8A8bKP+EJ/4Zx/4uL/AMIX9u/t7/mF/Y/tn2f7N/x/eR5m/wCyXH+r3bdnzY3Lnyr9lz9lz4n/ALF3x28M/GX4y+Gf+EO+G3hr7V/aut/b7W++zfaLWW1h/c2sssz7priJPkQ43ZOFBI9V/wCCGP8AzWz/ALgn/t/X1V/wVH/5MT+Jv/cM/wDTpaUAH/D0f9mL/opv/lA1T/5Gr6qr+Vev6qKACvKvjp+1H8MP2a/7E/4WP4m/4Rz+2vP+wf6BdXXneT5fm/6iJ9uPNj+9jO7jODj1Wvyr/wCC53/NE/8AuN/+2FAH2p8Lf29fgT8afHemeDfBvjn+2fEmpeb9ksv7Iv4PM8uJ5X+eWBUGEjc8sM4wOSBX0BX4A/8ABLj/AJPs+GX/AHE//TXd1+/1ABRRRQAUUUUAFFFFABXyr/wVH/5MT+Jv/cM/9OlpX1VXyr/wVH/5MT+Jv/cM/wDTpaUAfgDRRX7/AH/Drj9mL/omX/lf1T/5JoA/AGv1U/4IY/8ANbP+4J/7f18Vft6/C3wx8Fv2sfHPg3wbpn9jeG9N+w/ZLL7RLP5fmWFvK/zysznLyOeWOM4HAArlfgX+1H8T/wBmv+2/+FceJv8AhHP7a8j7f/oFrded5PmeV/r4n2482T7uM7uc4GAD9qf+Co//ACYn8Tf+4Z/6dLSvwBr7/wD2XP2o/if+2j8dvDPwa+Mvib/hMfht4l+1f2ron2C1sftP2e1luof31rFFMm2a3if5HGduDlSQfv8A/wCHXH7MX/RMv/K/qn/yTQB+ANfv9/wS4/5MT+GX/cT/APTpd0f8OuP2Yv8AomX/AJX9U/8AkmvgD9qP9qP4n/sXfHbxN8Gvg14m/wCEO+G3hr7L/ZWifYLW++zfaLWK6m/fXUUsz7priV/nc43YGFAAAPVf+C53/NE/+43/AO2FflXXqvx0/aj+J/7Sn9if8LH8Tf8ACR/2L5/2D/QLW18nzvL83/URJuz5Uf3s428Yyc9V+wV8LfDHxp/ax8DeDfGWmf2z4b1L7d9rsvtEsHmeXYXEqfPEyuMPGh4YZxg8EigDwCv6qK+Vf+HXH7MX/RMv/K/qn/yTX5V/8PR/2nf+im/+UDS//kagD9/q/Kv/AILnf80T/wC43/7YV8q/8PR/2nf+im/+UDS//kavKvjp+1H8T/2lP7E/4WP4m/4SP+xfP+wf6Ba2vk+d5fm/6iJN2fKj+9nG3jGTkA9V/wCCXH/J9nwy/wC4n/6a7uv3+r8Af+CXH/J9nwy/7if/AKa7uv3+oA/lXr9/v+CXH/Jifwy/7if/AKdLuvwW8JeFdT8deK9F8N6JbfbNZ1i9h06xtjIsfmzyyLHGm5iFXLMBliAM8kCv6Of2dfhFa/syfAXwd8O7e8n1qbSrd42mON1xcyyPPOUGBtj8ySTaDyqBQSxBJAPWq8C/bv8AhV4m+Nv7KfjjwV4PsF1PxHqf2H7LavPHAH8u+t5X+eRlUYSNzyecY6mvZhHrs4D+fp9nn/lkYHnI/wCBb0z+VRzJrkIJOpaaFAyS1g44/wC/9AH4Uf8ADqn9pb/oRLX/AMHth/8AHqP+HVP7S3/QiWv/AIPbD/49X69v8cPF/im5li+HnhyPxhZxSmFtbni+waYzDg+XK8zPMAerIhX0Jrat7j44XgxN/wAIFpLY3fLFfXqj2zui5oA5/wDYQ+FXib4Jfsp+B/BXjCwXTPEemfbvtVqk8c4TzL64lT542ZTlJEPB4zjqK99ryttN+NTEbPFPgJQfXwzet+v9oCoZrH45wqTFr3w+u27I+h30AP4/bH/lQB61RXhWo+Kf2gdDQSP4R8F+IIh1Gk6lPFKfXCzqq/8Aj1b3gD4rap4z1G40fULdvCniW2iE8mj6vpTK7xZ2+bDItwyTR5wNyMcEgEA0gPV6KyBba7j/AJCOnf8AgBJ/8foabWLD550ttQhH3vsqNFIo9QrMwb6ZFMD8wv8Agud/zRP/ALjf/thXyr/wS4/5Ps+GX/cT/wDTXd1+0nxs/Zk+Fn7T1voE/wAQfDY8TRaQJm05hqF1a+UJvL8z/USpuz5Uf3s428Yyc8z8Lf2CvgT8F/HWmeM/Bngb+xvEmm+b9kvf7Xv5/L8yJ4n+SWdkOUkccqcZyOQDQB9AUUV+AP8Aw9H/AGnf+im/+UDS/wD5GoAP+Co//J9nxN/7hn/prtK+qv8Aghj/AM1s/wC4J/7f16r+y5+y58MP20fgT4Z+Mvxl8M/8Jj8SfEv2r+1db+33Vj9p+z3UtrD+5tZYoU2w28SfIgztycsST9VfAv8AZc+GH7Nf9t/8K48M/wDCOf215H2//T7q687yfM8r/Xyvtx5sn3cZ3c5wMAHlX/BUf/kxP4m/9wz/ANOlpX4A1+/3/BUf/kxP4m/9wz/06WlfgDQB/VRX4A/8FR/+T7Pib/3DP/TXaV+/1fgD/wAFR/8Ak+z4m/8AcM/9NdpQB9Vf8EMf+a2f9wT/ANv6/VSvyr/4IY/81s/7gn/t/X2p+3r8UvE/wW/ZO8c+MvBup/2N4k037D9kvfs8U/l+Zf28T/JKrIcpI45U4zkcgGgD6Ar+Vevqr/h6P+07/wBFN/8AKBpf/wAjV+qn/Drj9mL/AKJl/wCV/VP/AJJoA/AGivf/ANvX4W+GPgt+1j458G+DdM/sbw3pv2H7JZfaJZ/L8ywt5X+eVmc5eRzyxxnA4AFeAUAFFFFAH9VFFFFABRRRQAUUUUAFeVftR/Av/hpT4E+Jvhx/bf8Awjn9tfZf+Jn9k+1eT5N1FP8A6rem7PlbfvDG7POMH1WigD8q/wDhxj/1Wz/y1P8A7tr9VKKKAPgD9qP/AIJSf8NKfHbxN8R/+Fo/8I5/bX2X/iWf8I99q8nybWKD/W/ak3Z8rd90Y3Y5xk+Vf8OMf+q2f+Wp/wDdtfqpXlXx0/aj+GH7Nf8AYn/Cx/E3/COf215/2D/QLq687yfL83/URPtx5sf3sZ3cZwcAHyr+y5/wSk/4Zr+O3hn4j/8AC0f+Ej/sX7V/xLP+Ee+y+d51rLB/rftT7cebu+6c7ccZyPv+vlX/AIej/sxf9FN/8oGqf/I1H/D0f9mL/opv/lA1T/5GoA+qq+AP2o/+CUn/AA0p8dvE3xH/AOFo/wDCOf219l/4ln/CPfavJ8m1ig/1v2pN2fK3fdGN2OcZPqv/AA9H/Zi/6Kb/AOUDVP8A5Go/4ej/ALMX/RTf/KBqn/yNQB+Vf7c/7DH/AAxd/wAIT/xW3/CY/wDCS/bv+YT9h+zfZ/s//TeXfu+0e2NvfPB/wS4/5Ps+GX/cT/8ATXd19Vftz/8AGyj/AIQn/hnH/i4v/CF/bv7e/wCYX9j+2fZ/s3/H95Hmb/slx/q923Z82Ny55T9gr9gr47fBb9rHwN4y8ZeBv7G8N6b9u+13v9r2E/l+ZYXESfJFOznLyIOFOM5PAJoA/X+vyr/4cY/9Vs/8tT/7tr9VK+Vf+Ho/7MX/AEU3/wAoGqf/ACNQB8q/8OMf+q2f+Wp/9218q/tz/sMf8MXf8IT/AMVt/wAJj/wkv27/AJhP2H7N9n+z/wDTeXfu+0e2NvfPH7p/C34peGPjT4E0zxl4N1P+2fDepeb9kvfs8sHmeXK8T/JKquMPG45UZxkcEGviv/gq3+y58T/2lP8AhV3/AArjwz/wkf8AYv8Aan2//T7W18nzvsnlf6+VN2fKk+7nG3nGRkA/Kv8AZc+On/DNfx28M/Ef+xP+Ej/sX7V/xLPtf2XzvOtZYP8AW7H2483d905244zkff8A/wAPzv8Aqif/AJdf/wBxV8VfFL9gr47fBbwJqfjLxl4G/sbw3pvlfa73+17Cfy/MlSJPkinZzl5EHCnGcngE14BQB9Vf8Eu9Lg1T9uL4ci4ijmjg/tC4CSoGG5bC4KEA9CrbWB7FQRzX7zJibxbcBxn7NZRGP28x5N3/AKKWvyg/YA/YS+OXwQ/ar8I+L/Gvgj+xfDtlFfJcXn9rWM+wyWk0afJFOznLMo4B688V+r8H/I16j/15Wv8A6MuKTv0A1mYKMnpXyP8AtmftM6R4ZaLwDpr/ANp30+JNctre4MLx2uMiBnAyvm5w23kIGwQWU19bS8oB15Ffj38d7JLf48/Eac+c00+u3Ydrh9zFVlZVA/2QoAA7DHpUtvSxvTVJxlzt3tpbvfr2Vrnsdl/wUa8UeCbWJbjwj4fl0aHbDBp2nJLbMijoqNucdO23H0r6M1X9rvfaxT6J4buHheNX82+baq8cjCgjj/eH4V85fsi/Anw9490+fxt4ms4dW03T70xQWs8YkRtm3LAHgkyErz0CH1GP0F0uGw1zSUeK08iB0Mf2d0AVR6beldGEq01OU6sOaPQ582wtT2FOlh6nJUV3LTV3V4xXbu352Pla6/ay8a3D7oIdMtU6gJbsxP4lzWv4Y/aW+ImsTEW2gW2txry62tpKZPzViB+VemeJPg34fOrRtb6Hp8cUxBcCBQQc4JHFb/gbWYINZvfDlh4afSNNsNyxXK7AkpU4OVHIz1Fe9WxWCVNezoq78z4PDZbnEqr9ti3ZdvyWh88/Gj9vTU/hXZaXbf8ACDSQazdzNDL/AGjMyQ2+ApB2hQzEluh2j5TzXjGs/tteKvEU+m6lq+iaSdZ0a5W902+01ZIXiIIEsLBnfdHIm5GXg8huqivtv9oP4O6B8X/h9d6drGkQajcQjzrZ3UeZG/TKN1BwT09q/KC/06fQdb1XQrsk32kXkljNu6lkYqGx/tAA/jXzU5/vmkrRa09ep+k0cMnl0Kl+apBtTe10/hf6PzP2Q+G/xH0H4qeEdP8AEfh2+j1DTbxNyyRn7rDhlI6gg5BB9K6mvjr/AIJpacunfDXxWsTzGCTWjIsTtmNGMEe7b6HgE/hX2JSg24py3Maypqb9i7x6X3MnQQIp9Yt1GIob0hFHQbo45D/487fnXw3+zN/wVQP7Q37QOgfDA/DH+wP7Vku4/wC1f7f+0+V5FtNPnyvsqZ3eTt+8Mbs84wfuXRf+Qlr/AP1+r/6TQ1+OP7NP7NPxI/Y9/aG0T42fF3w5/wAIl8MfD014+p659utr37OLm3mtYP3FtJJM26a4hT5UON+TgAkWYn7SV/KvX7/f8PR/2Yv+im/+UDVP/kavwBoA+/8A9lz/AIKt/wDDNfwJ8M/Dj/hV3/CR/wBi/av+Jn/wkP2XzvOupZ/9V9lfbjzdv3jnbnjOB9//ALDH7c//AA2j/wAJt/xRP/CHf8I19h/5i3277T9o+0f9MItm37P753dsc/kB8Lf2Cvjt8afAmmeMvBvgb+2fDepeb9kvf7XsIPM8uV4n+SWdXGHjccqM4yOCDX6Vf8EpP2XPif8As1/8LR/4WP4Z/wCEc/tr+y/sH+n2t153k/a/N/1Er7cebH97Gd3GcHAB6r/wVH/5MT+Jv/cM/wDTpaV+ANfv9/wVH/5MT+Jv/cM/9OlpX4A0Af1UV8AftR/8EpP+GlPjt4m+I/8AwtH/AIRz+2vsv/Es/wCEe+1eT5NrFB/rftSbs+Vu+6Mbsc4yfVf+Ho/7MX/RTf8Aygap/wDI1H/D0f8AZi/6Kb/5QNU/+RqAPlX/AJQuf9Vi/wCFlf8AcD/s7+z/APwJ83zPt/8AsbfK/i3fL5V+1H/wVb/4aU+BPib4cf8ACrv+Ec/tr7L/AMTP/hIftXk+TdRT/wCq+ypuz5W37wxuzzjB9V/bn/42Uf8ACE/8M4/8XF/4Qv7d/b3/ADC/sf2z7P8AZv8Aj+8jzN/2S4/1e7bs+bG5c/Kv/Drj9p3/AKJl/wCV/S//AJJoA+Va/qor8Af+HXH7Tv8A0TL/AMr+l/8AyTX6qf8AD0f9mL/opv8A5QNU/wDkagDyr9qP/glJ/wANKfHbxN8R/wDhaP8Awjn9tfZf+JZ/wj32ryfJtYoP9b9qTdnyt33RjdjnGT5V/wAOMf8Aqtn/AJan/wB21+lPwt+KXhj40+BNM8ZeDdT/ALZ8N6l5v2S9+zyweZ5crxP8kqq4w8bjlRnGRwQa5X46ftR/DD9mv+xP+Fj+Jv8AhHP7a8/7B/oF1ded5Pl+b/qIn2482P72M7uM4OAD8q/2o/8AglJ/wzX8CfE3xH/4Wj/wkf8AYv2X/iWf8I99l87zrqKD/W/an2483d905244zkfAFfr9+3r+3r8CfjT+yd458G+DfHP9s+JNS+w/ZLL+yL+DzPLv7eV/nlgVBhI3PLDOMDkgV+QNAH9VFFFFABRRRQAUUUUAFFFfKv8AwVH/AOTE/ib/ANwz/wBOlpQB9VUV/KvX9VFABX5V/wDBc7/mif8A3G//AGwr5V/4Kj/8n2fE3/uGf+mu0r5VoAKKKKACiv6qKKAPyr/4IY/81s/7gn/t/X6qV+Vf/Bc7/mif/cb/APbCvlX/AIJcf8n2fDL/ALif/pru6AP3+r+Vev6qKKAPlX/glx/yYn8Mv+4n/wCnS7r6qoooA+Vf+Co//JifxN/7hn/p0tK/AGv6qKKAIn/10f4/yNZtuceK9R/68rX/ANGXFfhJ/wAEqv8Ak+LwJ/1w1L/0gnr927f/AJGvUf8Arytf/RlxSYF8TxzowjdZCDggHv6V8Jft0/sxapL/AGj8QfCbxNcXbol/YyMEO9jt8+M9OeMqfrmvsGyB8M+L5rYnbZ6h+8j9A/Of8+4riP2pdWWP4fDSkhkludQmXy2QDC7GDHOT36CvMwmMo1lJ4uXs1GXLJ3ta9vzurB7SvQTrYWHPON2otXTa1s11PGf2NHj+H3wyi8MzOL02zs93C3/LTzCGJA9MkgV9QW/jnQ9PsVS3jkjRB8sKREAe2elfAym80+TKebbuRjchI49M0jXlzJy1zOT7SsP61+iRyvCYiKeHqJxS6O/5XPyypxXmFGcnj6b9pJ3fMmvuTR6R+2b+0L8afAbaF/wqzwNL4iF8Wee+gsnvhbBSAqeXGc5bO7c3GOnrXt/wU+Lmv6z8NdD1v4geFY/C/im9hze2cLKdrgkDOTlSVCttJyM4rg/gb8StGTw9qUPivUoIP7PSJLTzCVZk5Bxjljwo9a4346+M7fXfE0unaRdw3ehW5SSGSEZ3OUGfmPoSeleDSy/HVMZ7CcFyJ76rT/M+nr55gaOXLF0ZN1JW0ur/AHb2PpbVviEt1C/l24S3UEl2k5wO5x0r86PHXwe1v4o/tJ3N54TWAWniS9YTCeQKkGP+WnPUFV3cc5GMc8dut1crG0aTzbX4Kq5wR+ddN8Mr1/DfjnRNWuIJWtrW5V5CqjO08HAz716WOwOAwmHcsTVUbarWz9PO55GUcS5rWxajhKLlGfuyVm04vb0tufYXwM+Etj8FvANj4cspTdMhaa5uiu0zzN95sdhwAB6KK777RH5wjLr5mM7M849cVE12kVp9odgkQTeSfTrXM+EoH1nUrvXZwR5hMduDxhB/kfrXxNfF8lanRprmc/wj3/yP0RX6m3ov/IS17/r9X/0mhr5c/wCCmH/JhfxL/wC4Z/6dLSvqLRf+Qjr3/X6v/pNDXy7/AMFMP+TC/iX/ANwz/wBOlpXpCPwQoor+qigD5V/4Jcf8mJ/DL/uJ/wDp0u6+qqKKAPlX/gqP/wAmJ/E3/uGf+nS0r8Aa/f7/AIKj/wDJifxN/wC4Z/6dLSvwBoAKK/qor8Af+Co//J9nxN/7hn/prtKAPqr/AIIY/wDNbP8AuCf+39fqpX5V/wDBDH/mtn/cE/8Ab+v1UoAK/lXr+qiigD5V/wCCXH/Jifwy/wC4n/6dLuvlX/gud/zRP/uN/wDthX6qV+Vf/Bc7/mif/cb/APbCgD8q6KKKAP6qKKKKACiiigAooooAK5T4pfC3wx8afAmp+DfGWmf2z4b1Lyvtdl9olg8zy5UlT54mVxh40PDDOMHgkV1dFAHyr/w64/Zi/wCiZf8Alf1T/wCSa/Kv/h6P+07/ANFN/wDKBpf/AMjV+/1flX/w4x/6rZ/5an/3bQB6r+y5+y58MP20fgT4Z+Mvxl8M/wDCY/EnxL9q/tXW/t91Y/afs91Law/ubWWKFNsNvEnyIM7cnLEk/Kv/AAVb/Zc+GH7Nf/Crv+FceGf+Ec/tr+1Pt/8Ap91ded5P2Tyv9fK+3HmyfdxndznAx+qn7LnwL/4Zr+BPhn4cf23/AMJH/Yv2r/iZ/ZPsvneddSz/AOq3vtx5u37xztzxnA+AP+C53/NE/wDuN/8AthQB8VfsFfC3wx8af2sfA3g3xlpn9s+G9S+3fa7L7RLB5nl2FxKnzxMrjDxoeGGcYPBIr9f/APh1x+zF/wBEy/8AK/qn/wAk1+Vf/BLj/k+z4Zf9xP8A9Nd3X7/UAFfkB+3r+3r8dvgt+1j458G+DfHP9jeG9N+w/ZLL+yLCfy/MsLeV/nlgZzl5HPLHGcDgAV+v9fAH7Uf/AASk/wCGlPjt4m+I/wDwtH/hHP7a+y/8Sz/hHvtXk+TaxQf637Um7PlbvujG7HOMkA/Kv46ftR/E/wDaU/sT/hY/ib/hI/7F8/7B/oFra+T53l+b/qIk3Z8qP72cbeMZOfVf+CXH/J9nwy/7if8A6a7uj9uf9hj/AIYu/wCEJ/4rb/hMf+El+3f8wn7D9m+z/Z/+m8u/d9o9sbe+ePKv2XPjp/wzX8dvDPxH/sT/AISP+xftX/Es+1/ZfO861lg/1ux9uPN3fdOduOM5AB/SnX4A/wDD0f8Aad/6Kb/5QNL/APkavqr/AIfnf9UT/wDLr/8AuKvyroA/oo/YK+KXif40/sneBvGXjLU/7Z8Sal9u+13v2eKDzPLv7iJPkiVUGEjQcKM4yeSTX0BXyr/wS4/5MT+GX/cT/wDTpd0ftz/tz/8ADF3/AAhP/FE/8Jj/AMJL9u/5i32H7N9n+z/9MJd+77R7Y2988AH1VRX5V/8AD87/AKon/wCXX/8AcVH/AA/O/wCqJ/8Al1//AHFQB9qfCz9hL4G/BHx7pvi/wV4I/sXxFZLKlvef2tfT7BJG0b/JLOyHKsw5B68c17Tb/wDI16j/ANeVr/6MuK0n/wBdH+P8jWdbf8jXqP8A15Wv/oy4oAo+NtIa/wBIaaIYubU+dGR6jrXkXx81OHxB4J0O/iIby7po5NpzsbYdyn0IxXv0wBjIPSvzu0STR/2aviX8UfhTd6tqoufGmqya/wCHbTUY/MtPIKbj5cxyfMDq6EE5KxR9yTXymcZcq1GvKErc8bPTqtVL5I9TLKzw+Lp1kr2f/ANsrkYI/A1Vn0m1uM74l+oGDVuiv59oY7F4Oalh6sotdm1+p+2YjL8HjocuJoxmn/Mk/wAzntW0WK1gMsJbggbWOevpVu18P2yKpk3SHAOCeOlWdWGbJv8AeX+Yq4Bjj0wP0r9DxXF+czyehFYmSk5TTfVpKNlf5s/OMHwZktPOq8nhouCjBqNrpN892l8kRQ2cMA/dxKg9AKsRf6xOOjA8U2q974u0/wABW58R6pIItO0plvLliobEaMGbC9zgcD1wO9fn9OpXx+Jgq1RylJrVts/R5U6GAw0nQpqKiuiSPsLxBq0epyWPhuzuEa9kRHuYkceZFGRwxHUZx364NdpY2kdjaxwRKFjjAUAV8ofsceEdG8e/ELxt+0FZNq8y+NYobfThrMYSSK3iAWTYqkgIzIu0eiA5Oa+uOlf0rhsMqdWVeTu5JLVbJLb79T8DmrNmVov/ACEte/6/V/8ASaGvxx/Zp/aW+JH7YX7Q2h/BP4u+I/8AhLfhj4hlvE1PQ/sNtZfaBbW811B+/to45l2zW8L/ACuM7MHIJB/Y7Rf+Qlr3/X6v/pNDX4R/8E0v+UgngH/rvq//AKbbyvVMz9SP+HXH7MX/AETL/wAr+qf/ACTX5V/8PR/2nf8Aopv/AJQNL/8Akav3+r+VegD6q/4ej/tO/wDRTf8AygaX/wDI1ff/APwSk/aj+J/7Sn/C0f8AhY/ib/hI/wCxf7L+wf6Ba2vk+d9r83/URJuz5Uf3s428Yyc/itX6qf8ABDH/AJrZ/wBwT/2/oA+qv+Co/wDyYn8Tf+4Z/wCnS0r8Aa/f7/gqP/yYn8Tf+4Z/6dLSvwBoA/qor5/+KX7BXwJ+NPjvU/GXjLwN/bPiTUvK+13v9r38HmeXEkSfJFOqDCRoOFGcZPJJr6AooA8q+Bf7Lnww/Zr/ALb/AOFceGf+Ec/tryPt/wDp91ded5PmeV/r5X2482T7uM7uc4GOU/b1+KXif4LfsneOfGXg3U/7G8Sab9h+yXv2eKfy/Mv7eJ/klVkOUkccqcZyOQDXK/tz/tz/APDF3/CE/wDFE/8ACY/8JL9u/wCYt9h+zfZ/s/8A0wl37vtHtjb3zx8AftR/8FW/+GlPgT4m+HH/AAq7/hHP7a+y/wDEz/4SH7V5Pk3UU/8Aqvsqbs+Vt+8Mbs84wQDyr/h6P+07/wBFN/8AKBpf/wAjUf8AD0f9p3/opv8A5QNL/wDkavlWv1U/4cY/9Vs/8tT/AO7aAPlX/h6P+07/ANFN/wDKBpf/AMjV5V8dP2o/if8AtKf2J/wsfxN/wkf9i+f9g/0C1tfJ87y/N/1ESbs+VH97ONvGMnP3/wD8OMf+q2f+Wp/9218q/tz/ALDH/DF3/CE/8Vt/wmP/AAkv27/mE/Yfs32f7P8A9N5d+77R7Y2988AHyrRXqv7LnwL/AOGlPjt4Z+HH9t/8I5/bX2r/AImf2T7V5Pk2ss/+q3puz5W37wxuzzjB+/8A/hxj/wBVs/8ALU/+7aAP1UooooAKKKKACiiigArlPil8UvDHwW8Can4y8Zan/Y3hvTfK+13v2eWfy/MlSJPkiVnOXkQcKcZyeATXV18q/wDBUf8A5MT+Jv8A3DP/AE6WlAB/w9H/AGYv+im/+UDVP/kaj/h6P+zF/wBFN/8AKBqn/wAjV+ANFAH7/f8AD0f9mL/opv8A5QNU/wDkavgD/gq3+1H8MP2lP+FXf8K48Tf8JH/Yv9qfb/8AQLq18nzvsnlf6+JN2fKk+7nG3nGRn4AooA9//YK+KXhj4LftY+BvGXjLU/7G8N6b9u+13v2eWfy/MsLiJPkiVnOXkQcKcZyeATX6/wD/AA9H/Zi/6Kb/AOUDVP8A5Gr8AaKAP3+/4ej/ALMX/RTf/KBqn/yNR/w9H/Zi/wCim/8AlA1T/wCRq/AGigD7/wD+Crf7Ufww/aU/4Vd/wrjxN/wkf9i/2p9v/wBAurXyfO+yeV/r4k3Z8qT7ucbecZGfir4W/C3xP8afHemeDfBumf2z4k1Lzfsll9oig8zy4nlf55WVBhI3PLDOMDkgVytfVX/BLj/k+z4Zf9xP/wBNd3QAf8OuP2nf+iZf+V/S/wD5Jo/4dcftO/8ARMv/ACv6X/8AJNfv9RQB8AfsuftR/DD9i74E+Gfg18ZfE3/CHfEnw19q/tXRPsF1ffZvtF1LdQ/vrWKWF90NxE/yOcbsHDAgfKv/AAVb/aj+GH7Sn/Crv+FceJv+Ej/sX+1Pt/8AoF1a+T532Tyv9fEm7PlSfdzjbzjIz5V/wVH/AOT7Pib/ANwz/wBNdpXyrQAUUUUAf0UfCz9u34G/G7x7pvhDwV43/trxFerK9vZ/2TfQbxHG0j/PLAqDCqx5I6cc17Vbf8jXqP8A15Wv/oy4r8I/+CVX/J8XgT/rhqX/AKQT1+7lt/yNeo/9eVr/AOjLigDUk+7/AI15N8Z9A8CX+s+HtS8V6Xpt1qln5q6fe3kG6S3DABwj4+XPHcV6ywyK4H4n6tYaTHayaratLYtlGlMHmopJGA3oD61w4yXLRk7pf4ldfNHThlzVYqzfo7M82Pw58Ga0vmWN0qg97a7DAfgc1Tm+Bmnucw6pOinpujDH88ir0enfDzXDviexic9opjBn8Mr/ACqX/hW3hyUbob65iB6eVe8frmvhZZbha3vfV6U/OM3H8LH1yx1eh7rr1I/4op/r+hwvxB+FFt4a8KXF9/ajzFZIlCsgXO51HXPvXSf8KKtCAU1eUggHPkqf61yHxr8PaP4a8O2ptL+4urua4A8ua4EgCBSScY9do/Gu00LwJ4c1XR7G6h1e7VbiFZAovAAMjkYx2r1q2RUI5bRf1ONnKWntNNUtT5/D53Vnm2IpfWZXUI7Q10b6LXQdB8ENJgObjU7p1HXBVKku/Bnw80iCSHUvsV2jqQ8N7MJVkB4IKdD9CDVxvh/4TtFzd3bSAdTNekf1FQpdfDzw8+6IWcs46bVM5z04PzYP0ry6eCwuEalGjRptd5cz/Jfme/PFV8TFp1ak79o8qPYPh9NpknhXS00eKKHS4oRDbxW8flxxonyhVUAAAAAAAdq6euf8GS/adDtZfs8lor7mSKVAjYJyCV7fSugr9Aoy5qale/4f5nxk1abRk6L/AMhLX/8Ar9X/ANJoa/n4/Yk+KXhj4Lftk+FPGXjLU/7G8N6bPqX2u9+zyz+X5llcxJ8kSs5y8iDhTjOTwCa/oH0X/kJa/wD9fq/+k0Nfy861/wAhi/8A+u8n/oRrYg/fL/h6P+zF/wBFN/8AKBqn/wAjV+Vf/Drj9p3/AKJl/wCV/S//AJJr5Vr+qigD8Af+HXH7Tv8A0TL/AMr+l/8AyTX1V+wx/wAa1/8AhNv+Gjv+Ldf8Jp9h/sH/AJin2z7H9o+0/wDHj5/l7Ptdv/rNu7f8udrY/VSvyr/4Lnf80T/7jf8A7YUAdV+3r+3r8CfjT+yd458G+DfHP9s+JNS+w/ZLL+yL+DzPLv7eV/nlgVBhI3PLDOMDkgV+QNFFAH7/AH/D0f8AZi/6Kb/5QNU/+RqP+Ho/7MX/AEU3/wAoGqf/ACNX4A0UAff/APwVb/aj+GH7Sn/Crv8AhXHib/hI/wCxf7U+3/6BdWvk+d9k8r/XxJuz5Un3c4284yM/FXwt+Fvif40+O9M8G+DdM/tnxJqXm/ZLL7RFB5nlxPK/zysqDCRueWGcYHJArla+qv8Aglx/yfZ8Mv8AuJ/+mu7oAP8Ah1x+07/0TL/yv6X/APJNfv8AUUUAFflX/wAFzv8Amif/AHG//bCv1Ur8q/8Agud/zRP/ALjf/thQB8q/8EuP+T7Phl/3E/8A013dfv8AV+AP/BLj/k+z4Zf9xP8A9Nd3X7/UAFFFFABRRRQAUUUUAFFFFABX8q9f1UV8q/8ADrj9mL/omX/lf1T/AOSaAPwBr9VP+CGP/NbP+4J/7f18Vft6/C3wx8Fv2sfHPg3wbpn9jeG9N+w/ZLL7RLP5fmWFvK/zysznLyOeWOM4HAArlfgX+1H8T/2a/wC2/wDhXHib/hHP7a8j7f8A6Ba3XneT5nlf6+J9uPNk+7jO7nOBgA/an/gqP/yYn8Tf+4Z/6dLSvwBr7/8A2XP2o/if+2j8dvDPwa+Mvib/AITH4beJftX9q6J9gtbH7T9ntZbqH99axRTJtmt4n+Rxnbg5UkH7/wD+HXH7MX/RMv8Ayv6p/wDJNAH1VRX4A/8AD0f9p3/opv8A5QNL/wDkaj/h6P8AtO/9FN/8oGl//I1AH1V/wXO/5on/ANxv/wBsK+Vf+CXH/J9nwy/7if8A6a7uvKvjp+1H8T/2lP7E/wCFj+Jv+Ej/ALF8/wCwf6Ba2vk+d5fm/wCoiTdnyo/vZxt4xk59V/4Jcf8AJ9nwy/7if/pru6AP3+r+Vev6qK/lXoA/f7/glx/yYn8Mv+4n/wCnS7r5V/4Lnf8ANE/+43/7YV8VfC39vX47fBbwJpng3wb45/sbw3pvm/ZLL+yLCfy/MleV/nlgZzl5HPLHGcDgAVyvx0/aj+J/7Sn9if8ACx/E3/CR/wBi+f8AYP8AQLW18nzvL83/AFESbs+VH97ONvGMnIB5VRXv/wCwV8LfDHxp/ax8DeDfGWmf2z4b1L7d9rsvtEsHmeXYXEqfPEyuMPGh4YZxg8Eiv1//AOHXH7MX/RMv/K/qn/yTQB9Sv/ro/wAf5Gs62/5GvUf+vK1/9GXFaErBZIifXH58ViT3DaX40R52C2uo2qW0THoJo2kbaT6sshwO+xqAOgbpXF/Fnw5N4p+Huu6bApM72xeHHVpF+ZR+JUCu0PSmPgIcnAA5ppqLTeyMqsPaQcNrqx+cMetXtuSjOHIODvXoakbxDeY48tT6ha9h+NHwhS91651bwpEZ45mLy2YGPnPJaP1B5OPrivEbyzuNOuWgu4JbWZTho5kKMD7g172GyXhvNH7enhqbl10Wh+X47OeKslk8PUxNSMOjvdP5vUbcXMt3IXmYuxqaz1S5slCxv8g7EcVWor6qrl2DrYdYSpSi6a2i1ofF0s0x1HEvGU60lUf2ru/9M0j4iuv7kf1xn+tek/s86Xe+LPiPaXMql7LTlNxKcYTPIQfXdz/wE1w3hT4deIPGZY6fp0zWyECS6dCscf1JwD9Ov0r67+CHhPSfBnhttPtFL6gzCS6uW6yt0BHoB0A/xr4fGZZw/lkvZ4fDwVaW2l7fM/TMoxvEectVcTiJujHu7X7bbo9MhGCOf0xU9RIVBAHrT5JFiRndgiKMszHAA9a81JLY+980Zei/8hLX/wDr9X/0mhr8I/8Agml/ykE8A/8AXfV//TbeV+4Or+LrDwF4G8WeNtZ86HSLC3udZufLTdILaCDJIXuSkO4D3Ar+bX4afFjxV8HviDp/jfwjqv8AZHiiwaZra/8As8U2wyxvFJ+7kVkOUkccqcZyMEA0wP6e6/lXr6q/4ej/ALTv/RTf/KBpf/yNXyrQB+/3/BLj/kxP4Zf9xP8A9Ol3X1VX863wt/b1+O3wW8CaZ4N8G+Of7G8N6b5v2Sy/siwn8vzJXlf55YGc5eRzyxxnA4AFfpV/wSk/aj+J/wC0p/wtH/hY/ib/AISP+xf7L+wf6Ba2vk+d9r83/URJuz5Uf3s428YycgH3/RXz/wDt6/FLxP8ABb9k7xz4y8G6n/Y3iTTfsP2S9+zxT+X5l/bxP8kqshykjjlTjORyAa/IH/h6P+07/wBFN/8AKBpf/wAjUAfKtfv9/wAEuP8AkxP4Zf8AcT/9Ol3R/wAOuP2Yv+iZf+V/VP8A5Jr4A/aj/aj+J/7F3x28TfBr4NeJv+EO+G3hr7L/AGVon2C1vvs32i1iupv311FLM+6a4lf53ON2BhQAAD9qaK+AP+CUn7UfxP8A2lP+Fo/8LH8Tf8JH/Yv9l/YP9AtbXyfO+1+b/qIk3Z8qP72cbeMZOff/ANvX4peJ/gt+yd458ZeDdT/sbxJpv2H7Je/Z4p/L8y/t4n+SVWQ5SRxypxnI5ANAH0BX8q9fVX/D0f8Aad/6Kb/5QNL/APkav1U/4dcfsxf9Ey/8r+qf/JNAH4A1+qn/AAQx/wCa2f8AcE/9v6+qv+HXH7MX/RMv/K/qn/yTXyr+3P8A8a1/+EJ/4Zx/4t1/wmn27+3v+Yp9s+x/Z/s3/H95/l7Ptdx/q9u7f82dq4APqr/gqP8A8mJ/E3/uGf8Ap0tK/AGvf/il+3r8dvjT4E1Pwb4y8c/2z4b1Lyvtdl/ZFhB5nlypKnzxQK4w8aHhhnGDwSK8AoA/qoooooAKKKKACiiigAooooAK/Kv/AIfnf9UT/wDLr/8AuKv1Ur+VegD1X9qP46f8NKfHbxN8R/7E/wCEc/tr7L/xLPtf2ryfJtYoP9bsTdnyt33RjdjnGT6r+wx+wx/w2j/wm3/Fbf8ACHf8I19h/wCYT9u+0/aPtH/TeLZt+z++d3bHPyrX3/8A8EpP2o/hh+zX/wALR/4WP4m/4Rz+2v7L+wf6BdXXneT9r83/AFET7cebH97Gd3GcHAB6r/wwx/w7X/4yO/4Tb/hYv/CF/wDMtf2T/Zf2z7Z/oH/Hz58/l7Ptfmf6tt2zbxu3A/4fnf8AVE//AC6//uKuq/b1/b1+BPxp/ZO8c+DfBvjn+2fEmpfYfsll/ZF/B5nl39vK/wA8sCoMJG55YZxgckCvyBoAK+//ANlz/glJ/wANKfAnwz8R/wDhaP8Awjn9tfav+JZ/wj32ryfJupYP9b9qTdnyt33RjdjnGT5V/wAOuP2nf+iZf+V/S/8A5Jr7/wD2XP2o/hh+xd8CfDPwa+Mvib/hDviT4a+1f2ron2C6vvs32i6luof31rFLC+6G4if5HON2DhgQADyr/hxj/wBVs/8ALU/+7a9V/Zc/4JSf8M1/Hbwz8R/+Fo/8JH/Yv2r/AIln/CPfZfO861lg/wBb9qfbjzd33TnbjjOR6r/w9H/Zi/6Kb/5QNU/+Rq6r4W/t6/An40+O9M8G+DfHP9s+JNS837JZf2RfweZ5cTyv88sCoMJG55YZxgckCgD6Ar8q/wDhxj/1Wz/y1P8A7tr9VK+Vf+Ho/wCzF/0U3/ygap/8jUAfit+1H8C/+Ga/jt4m+HH9t/8ACR/2L9l/4mf2T7L53nWsU/8Aqt77cebt+8c7c8ZwPKq+/wD9qP8AZc+J/wC2j8dvE3xl+DXhn/hMfht4l+y/2Vrf2+1sftP2e1itZv3N1LFMm2a3lT50GduRlSCfKv8Ah1x+07/0TL/yv6X/APJNAHlX7Lnx0/4Zr+O3hn4j/wBif8JH/Yv2r/iWfa/svnedaywf63Y+3Hm7vunO3HGcj7//AOH53/VE/wDy6/8A7ir5V/4dcftO/wDRMv8Ayv6X/wDJNH/Drj9p3/omX/lf0v8A+SaAP32vI/MhIr5pv/25fhXp3xy8W/Bf4h30HhLVdKeAW+paxMsenX0b2cV0GM5wLeVS7LhyASiFHLOEX6dYbhivx/8A28v2Cfjr8Zf2rvHPjHwZ4FOseGtS+w/ZL3+1rGDzPLsbeJ/klnVxh43HKjOMjIINAH6v6XovmWcU+neJNQn0+dFlt2SSCePyyMqUdo2LKQRgljkd6tPoV24IbXtQIIwR5dt/8Zr8nP2SvDP/AA7+XxYP2jVPw7/4S77J/YOf+Jl9s+y+d9p/48vO2bPtNv8Af253/LnDY9/P7eH7MhP/ACUn/wAoep//ACNQB9oaf8PY9NuGnh1rUjITwXW2O32H7mk1r4cWXiNNmp3c1+vpcWto/wDOGvjD/hu/9mT/AKKT/wCUPU//AJGo/wCG7/2ZP+ik/wDlD1P/AORqinGNH+GregqqVdWq+966n1HL+zL4MmkLtFchj/d8pR+QjrQ0v4BeFtGcPaRMkg5DvbWsjD8WhJr8FP2yPihovxE/aQ8X+IfBGuz6n4XvPsf2O6RZrcPss4Ek/dyKrDEiuOVGcZHBBrK+B37PXxe/aR/tr/hXOj3fiP8AsbyPt+NUgtvJ87zPL/10qbs+VJ93ONvOMjPU69Vqzk/vOKOAwkXdUo39Ef0Wp4amii8pNavljxjYsVsBj6eTVbT/AAT/AGXJLJb6zqCPJ947Lc/gP3XFfhd/w7a/ar/6EC9/8KHT/wD5Jo/4dtftV/8AQgXv/hQ6f/8AJNczjGUuZrU7l7q5Vsfu/wD2Jd5/5D2of9+7b/4zUVzpdpaqs2ranLdQqwx9ukRIt3bKqqqfxzXw+P28P2ZAf+Sk/wDlD1P/AORqv2H7fn7MFtIGb4jrn1Og6mf/AG2qgPVP2u/g7rf7XHw9i8BaF40Hgvw5PcLcapO2kNeS6gEIaKIfv4gkYcB2yCWZY8FQpD/IMf8AwQ0Mign414/7lT/7tr7s/Z6/aK+F37Qy60Phv4kHiL+xPI+34sLq18nzvM8r/XxJuz5Un3c4284yM9/8UPih4X+CvgPU/GXjLU/7G8N6Z5X2u9+zyz+X5kqRJ8kSs5y8iDhTjOTwCaAPzX/4cY/9Vs/8tT/7tr8q6/f7/h6P+zF/0U3/AMoGqf8AyNX4A0AFfqp/wQx/5rZ/3BP/AG/r4q+Fv7BXx2+NPgTTPGXg3wN/bPhvUvN+yXv9r2EHmeXK8T/JLOrjDxuOVGcZHBBr7V/YY/41r/8ACbf8NHf8W6/4TT7D/YP/ADFPtn2P7R9p/wCPHz/L2fa7f/Wbd2/5c7WwAff/AO1H8C/+GlPgT4m+HH9t/wDCOf219l/4mf2T7V5Pk3UU/wDqt6bs+Vt+8Mbs84wfgD/hxj/1Wz/y1P8A7tr7U+Fv7evwJ+NPjvTPBvg3xz/bPiTUvN+yWX9kX8HmeXE8r/PLAqDCRueWGcYHJAr6AoA/Kv8A4fnf9UT/APLr/wDuKj/hhj/h5R/xkd/wm3/Cuv8AhNP+Za/sn+1Psf2P/QP+Pnz4PM3/AGTzP9Wu3ft527j+Vdfr9+wV+3r8Cfgt+yd4G8G+MvHP9jeJNN+3fa7L+yL+fy/Mv7iVPnigZDlJEPDHGcHkEUAfQH7DH7DH/DF3/Cbf8Vt/wmP/AAkv2H/mE/Yfs32f7R/03l37vtHtjb3zx6r+1H8C/wDhpT4E+Jvhx/bf/COf219l/wCJn9k+1eT5N1FP/qt6bs+Vt+8Mbs84wT4F/tR/DD9pT+2/+FceJv8AhI/7F8j7f/oF1a+T53meV/r4k3Z8qT7ucbecZGfVaAPyr/4cY/8AVbP/AC1P/u2v1UoooAK/Kv8A4Lnf80T/AO43/wC2FfqpXwB/wVb/AGXPif8AtKf8Ku/4Vx4Z/wCEj/sX+1Pt/wDp9ra+T532Tyv9fKm7PlSfdzjbzjIyAflX+y58C/8AhpT47eGfhx/bf/COf219q/4mf2T7V5Pk2ss/+q3puz5W37wxuzzjB+//APhxj/1Wz/y1P/u2uU/YK/YK+O3wW/ax8DeMvGXgb+xvDem/bvtd7/a9hP5fmWFxEnyRTs5y8iDhTjOTwCa/X+gAooooAKKKKACiiigAooooAK/lXr+qiigD+Veiv6qK/Kv/AILnf80T/wC43/7YUAflXRRRQB/VRX4A/wDBUf8A5Ps+Jv8A3DP/AE12lfv9RQB/KvX1V/wS4/5Ps+GX/cT/APTXd19Vf8Fzv+aJ/wDcb/8AbCvyroA/qor+VeiigD9/v+CXH/Jifwy/7if/AKdLuvqqv5V6/VT/AIIY/wDNbP8AuCf+39AH6qUV8q/8FR/+TE/ib/3DP/TpaV+ANAH9VFFFfgD/AMFR/wDk+z4m/wDcM/8ATXaUAfVX/Bc7/mif/cb/APbCvyroooAKKK/qooA/lXr9VP8Aghj/AM1s/wC4J/7f1+qlFABRRRQB/KvRRX7/AH/BLj/kxP4Zf9xP/wBOl3QB8q/8EMf+a2f9wT/2/r6q/wCCo/8AyYn8Tf8AuGf+nS0r5V/4Lnf80T/7jf8A7YV8q/8ABLj/AJPs+GX/AHE//TXd0AfKtFf1UV/KvQB+/wB/wS4/5MT+GX/cT/8ATpd18q/8Fzv+aJ/9xv8A9sK+qv8Aglx/yYn8Mv8AuJ/+nS7r6qoA/AH/AIJcf8n2fDL/ALif/pru6/f6vlX/AIKj/wDJifxN/wC4Z/6dLSvwBoAKK/qoooA/Kv8A4IY/81s/7gn/ALf1+qlFFABRRX8q9AH9VFFfyr0UAf1UUV+AP/BLj/k+z4Zf9xP/ANNd3X7/AFABRRRQAUUUUAFFFFABXz/+3r8UvE/wW/ZO8c+MvBup/wBjeJNN+w/ZL37PFP5fmX9vE/ySqyHKSOOVOM5HIBr6Aryr9qP4F/8ADSnwJ8TfDj+2/wDhHP7a+y/8TP7J9q8nybqKf/Vb03Z8rb94Y3Z5xggH4rf8PR/2nf8Aopv/AJQNL/8Akav3+r8q/wDhxj/1Wz/y1P8A7to/4fnf9UT/APLr/wDuKgD9VK8q+On7Lnww/aU/sT/hY/hn/hI/7F8/7B/p91a+T53l+b/qJU3Z8qP72cbeMZOfgD/h+d/1RP8A8uv/AO4qP+H53/VE/wDy6/8A7ioA6r9vX9gr4E/Bb9k7xz4y8G+Bv7G8Sab9h+yXv9r38/l+Zf28T/JLOyHKSOOVOM5HIBr8ga/VT/huf/h5R/xjj/whP/Cuv+E0/wCZl/tb+1Psf2P/AE//AI9vIg8zf9k8v/WLt37udu0n/DjH/qtn/lqf/dtAH6qV+QH7ev7evx2+C37WPjnwb4N8c/2N4b037D9ksv7IsJ/L8ywt5X+eWBnOXkc8scZwOABX6/18AftR/wDBKT/hpT47eJviP/wtH/hHP7a+y/8AEs/4R77V5Pk2sUH+t+1Juz5W77oxuxzjJAPKv2GP+NlH/Cbf8NHf8XF/4Qv7D/YP/ML+x/bPtH2n/jx8jzN/2S3/ANZu27PlxubP1V/w64/Zi/6Jl/5X9U/+Sa+Vf+ULn/VYv+Flf9wP+zv7P/8AAnzfM+3/AOxt8r+Ld8p/w/O/6on/AOXX/wDcVAH1V/w64/Zi/wCiZf8Alf1T/wCSa/AGv1U/4fnf9UT/APLr/wDuKj/hxj/1Wz/y1P8A7toA/Kuv1U/4IY/81s/7gn/t/XwB+1H8C/8Ahmv47eJvhx/bf/CR/wBi/Zf+Jn9k+y+d51rFP/qt77cebt+8c7c8ZwPVf2GP25/+GLv+E2/4on/hMf8AhJfsP/MW+w/Zvs/2j/phLv3faPbG3vngA/VT/gqP/wAmJ/E3/uGf+nS0r8Aa+/8A9qP/AIKt/wDDSnwJ8TfDj/hV3/COf219l/4mf/CQ/avJ8m6in/1X2VN2fK2/eGN2ecYPwBQB/VRX4A/8FR/+T7Pib/3DP/TXaV9Vf8Pzv+qJ/wDl1/8A3FXwB+1H8dP+GlPjt4m+I/8AYn/COf219l/4ln2v7V5Pk2sUH+t2Juz5W77oxuxzjJAPqr/glJ+y58MP2lP+Fo/8LH8M/wDCR/2L/Zf2D/T7q18nzvtfm/6iVN2fKj+9nG3jGTn3/wDb1/YK+BPwW/ZO8c+MvBvgb+xvEmm/Yfsl7/a9/P5fmX9vE/ySzshykjjlTjORyAa+K/2GP25/+GLv+E2/4on/AITH/hJfsP8AzFvsP2b7P9o/6YS7932j2xt754+qv+G5/wDh5R/xjj/whP8Awrr/AITT/mZf7W/tT7H9j/0//j28iDzN/wBk8v8A1i7d+7nbtIB+Vdf1UV+Vf/DjH/qtn/lqf/dtH/D87/qif/l1/wD3FQByn7ev7evx2+C37WPjnwb4N8c/2N4b037D9ksv7IsJ/L8ywt5X+eWBnOXkc8scZwOABXgH/D0f9p3/AKKb/wCUDS//AJGr6q/4YY/4eUf8ZHf8Jt/wrr/hNP8AmWv7J/tT7H9j/wBA/wCPnz4PM3/ZPM/1a7d+3nbuJ/w4x/6rZ/5an/3bQB8q/wDD0f8Aad/6Kb/5QNL/APkaj/h6P+07/wBFN/8AKBpf/wAjV6r+1H/wSk/4Zr+BPib4j/8AC0f+Ej/sX7L/AMSz/hHvsvneddRQf637U+3Hm7vunO3HGcj4AoAK9/8Ahb+3r8dvgt4E0zwb4N8c/wBjeG9N837JZf2RYT+X5kryv88sDOcvI55Y4zgcACvtX/hxj/1Wz/y1P/u2vgD9qP4F/wDDNfx28TfDj+2/+Ej/ALF+y/8AEz+yfZfO861in/1W99uPN2/eOdueM4AB9/8A7DH/ABso/wCE2/4aO/4uL/whf2H+wf8AmF/Y/tn2j7T/AMePkeZv+yW/+s3bdny43Nn1X9qP9lz4YfsXfAnxN8Zfg14Z/wCEO+JPhr7L/ZWt/b7q++zfaLqK1m/c3UssL7obiVPnQ43ZGGAI+AP2GP25/wDhi7/hNv8Aiif+Ex/4SX7D/wAxb7D9m+z/AGj/AKYS7932j2xt754+qv8Ahuf/AIeUf8Y4/wDCE/8ACuv+E0/5mX+1v7U+x/Y/9P8A+PbyIPM3/ZPL/wBYu3fu527SAfKv/D0f9p3/AKKb/wCUDS//AJGr9VP+HXH7MX/RMv8Ayv6p/wDJNfKv/DjH/qtn/lqf/dtH/D87/qif/l1//cVAH6U/C34W+GPgt4E0zwb4N0z+xvDem+b9ksvtEs/l+ZK8r/PKzOcvI55Y4zgcACurr8q/+H53/VE//Lr/APuKvqr9hj9uf/htH/hNv+KJ/wCEO/4Rr7D/AMxb7d9p+0faP+mEWzb9n987u2OQD3/4pfC3wx8afAmp+DfGWmf2z4b1Lyvtdl9olg8zy5UlT54mVxh40PDDOMHgkV4B/wAOuP2Yv+iZf+V/VP8A5Jr1X9qP46f8M1/AnxN8R/7E/wCEj/sX7L/xLPtf2XzvOuooP9bsfbjzd33TnbjjOR8Af8Pzv+qJ/wDl1/8A3FQB+qlfkB+3r+3r8dvgt+1j458G+DfHP9jeG9N+w/ZLL+yLCfy/MsLeV/nlgZzl5HPLHGcDgAV+v9fgD/wVH/5Ps+Jv/cM/9NdpQAf8PR/2nf8Aopv/AJQNL/8Akavf/wBgr9vX47fGn9rHwN4N8ZeOf7Z8N6l9u+12X9kWEHmeXYXEqfPFArjDxoeGGcYPBIr81q+qv+CXH/J9nwy/7if/AKa7ugD9/q/lXr+qivyr/wCHGP8A1Wz/AMtT/wC7aAPyror9VP8Ahxj/ANVs/wDLU/8Au2j/AIcY/wDVbP8Ay1P/ALtoA/NX4W/FLxP8FvHemeMvBup/2N4k03zfsl79nin8vzInif5JVZDlJHHKnGcjkA19Af8AD0f9p3/opv8A5QNL/wDkavVf2o/+CUn/AAzX8CfE3xH/AOFo/wDCR/2L9l/4ln/CPfZfO866ig/1v2p9uPN3fdOduOM5HwBQB/VRRRRQAUUUUAFFFFABXKfFL4peGPgt4E1Pxl4y1P8Asbw3pvlfa737PLP5fmSpEnyRKznLyIOFOM5PAJrq6+Vf+Co//JifxN/7hn/p0tKAD/h6P+zF/wBFN/8AKBqn/wAjV+Vf/Drj9p3/AKJl/wCV/S//AJJr5Vr+qigD8Af+HXH7Tv8A0TL/AMr+l/8AyTR/w64/ad/6Jl/5X9L/APkmv3+ooA/ID9gr9gr47fBb9rHwN4y8ZeBv7G8N6b9u+13v9r2E/l+ZYXESfJFOznLyIOFOM5PAJr9f6KKACvn/AOKX7evwJ+C3jvU/BvjLxz/Y3iTTfK+12X9kX8/l+ZEkqfPFAyHKSIeGOM4PIIr6Ar8Af+Co/wDyfZ8Tf+4Z/wCmu0oA9V/4Kt/tR/DD9pT/AIVd/wAK48Tf8JH/AGL/AGp9v/0C6tfJ877J5X+viTdnypPu5xt5xkZ+Kvhb8LfE/wAafHemeDfBumf2z4k1Lzfsll9oig8zy4nlf55WVBhI3PLDOMDkgVytfVX/AAS4/wCT7Phl/wBxP/013dAB/wAOuP2nf+iZf+V/S/8A5Jr9/qKKAPwB/wCCo/8AyfZ8Tf8AuGf+mu0ryr4F/sufE/8AaU/tv/hXHhn/AISP+xfI+3/6fa2vk+d5nlf6+VN2fKk+7nG3nGRn1X/gqP8A8n2fE3/uGf8AprtK+qv+CGP/ADWz/uCf+39AHyr/AMOuP2nf+iZf+V/S/wD5Jo/4dcftO/8ARMv/ACv6X/8AJNfv9RQB+AP/AA64/ad/6Jl/5X9L/wDkmj/h1x+07/0TL/yv6X/8k1+/1FAH81nx0/Zc+J/7Nf8AYn/Cx/DP/COf215/2D/T7W687yfL83/USvtx5sf3sZ3cZwceq/8ABLj/AJPs+GX/AHE//TXd19Vf8Fzv+aJ/9xv/ANsK+Vf+CXH/ACfZ8Mv+4n/6a7ugD9/q/lXr+qiv5V6AP3+/4Jcf8mJ/DL/uJ/8Ap0u69V+On7Ufww/Zr/sT/hY/ib/hHP7a8/7B/oF1ded5Pl+b/qIn2482P72M7uM4OPKv+CXH/Jifwy/7if8A6dLuvlX/AILnf80T/wC43/7YUAdV+3r+3r8CfjT+yd458G+DfHP9s+JNS+w/ZLL+yL+DzPLv7eV/nlgVBhI3PLDOMDkgV+QNFFAH9VFfgD/wVH/5Ps+Jv/cM/wDTXaV+/wBX4A/8FR/+T7Pib/3DP/TXaUAeVfAv9lz4n/tKf23/AMK48M/8JH/Yvkfb/wDT7W18nzvM8r/Xypuz5Un3c4284yM/an7BX7BXx2+C37WPgbxl4y8Df2N4b037d9rvf7XsJ/L8ywuIk+SKdnOXkQcKcZyeATXV/wDBDH/mtn/cE/8Ab+v1UoAK/lXr+qiv5V6ACv1U/wCCGP8AzWz/ALgn/t/X5V1+qn/BDH/mtn/cE/8Ab+gD6q/4Kj/8mJ/E3/uGf+nS0r8Aa/f7/gqP/wAmJ/E3/uGf+nS0r8AaAP3+/wCHo/7MX/RTf/KBqn/yNX5Aft6/FLwx8af2sfHPjLwbqf8AbPhvUvsP2S9+zyweZ5dhbxP8kqq4w8bjlRnGRwQa8AooAK9//YK+KXhj4LftY+BvGXjLU/7G8N6b9u+13v2eWfy/MsLiJPkiVnOXkQcKcZyeATXgFFAH7/f8PR/2Yv8Aopv/AJQNU/8Akavqqv5V6/qooAK8q+On7Ufww/Zr/sT/AIWP4m/4Rz+2vP8AsH+gXV153k+X5v8AqIn2482P72M7uM4OPVa/Kv8A4Lnf80T/AO43/wC2FAHqv7Uf7Ufww/bR+BPib4NfBrxN/wAJj8SfEv2X+ytE+wXVj9p+z3UV1N++uoooU2w28r/O4ztwMsQD8Af8OuP2nf8AomX/AJX9L/8Akmj/AIJcf8n2fDL/ALif/pru6/f6gAooooAKKKKACiiigAoor5//AG9fil4n+C37J3jnxl4N1P8AsbxJpv2H7Je/Z4p/L8y/t4n+SVWQ5SRxypxnI5ANAH0BRX4A/wDD0f8Aad/6Kb/5QNL/APkaj/h6P+07/wBFN/8AKBpf/wAjUAfv9RX4A/8AD0f9p3/opv8A5QNL/wDkaj/h6P8AtO/9FN/8oGl//I1AH7/UV+AP/D0f9p3/AKKb/wCUDS//AJGo/wCHo/7Tv/RTf/KBpf8A8jUAfv8AUV+AP/D0f9p3/opv/lA0v/5Go/4ej/tO/wDRTf8AygaX/wDI1AH7/V8q/wDBUf8A5MT+Jv8A3DP/AE6WleVf8EpP2o/if+0p/wALR/4WP4m/4SP+xf7L+wf6Ba2vk+d9r83/AFESbs+VH97ONvGMnP2p8Uvhb4Y+NPgTU/BvjLTP7Z8N6l5X2uy+0SweZ5cqSp88TK4w8aHhhnGDwSKAP5gq/qor5V/4dcfsxf8ARMv/ACv6p/8AJNflX/w9H/ad/wCim/8AlA0v/wCRqAD/AIKj/wDJ9nxN/wC4Z/6a7Svqr/ghj/zWz/uCf+39eq/sufsufDD9tH4E+GfjL8ZfDP8AwmPxJ8S/av7V1v7fdWP2n7PdS2sP7m1lihTbDbxJ8iDO3JyxJP1V8C/2XPhh+zX/AG3/AMK48M/8I5/bXkfb/wDT7q687yfM8r/Xyvtx5sn3cZ3c5wMAHlX/AAVH/wCTE/ib/wBwz/06WlfgDX7/AH/BUf8A5MT+Jv8A3DP/AE6WlfgDQAV+/wB/wS4/5MT+GX/cT/8ATpd1+ANe/wDwt/b1+O3wW8CaZ4N8G+Of7G8N6b5v2Sy/siwn8vzJXlf55YGc5eRzyxxnA4AFAH9FNfKv/BUf/kxP4m/9wz/06WleVf8ABKT9qP4n/tKf8LR/4WP4m/4SP+xf7L+wf6Ba2vk+d9r83/URJuz5Uf3s428Yyc/anxS+Fvhj40+BNT8G+MtM/tnw3qXlfa7L7RLB5nlypKnzxMrjDxoeGGcYPBIoA/mCor9/v+HXH7MX/RMv/K/qn/yTX4A0AFfqp/wQx/5rZ/3BP/b+vyrr1X4F/tR/E/8AZr/tv/hXHib/AIRz+2vI+3/6Ba3XneT5nlf6+J9uPNk+7jO7nOBgA/an/gqP/wAmJ/E3/uGf+nS0r8Aa9/8Ail+3r8dvjT4E1Pwb4y8c/wBs+G9S8r7XZf2RYQeZ5cqSp88UCuMPGh4YZxg8EivAKAP6qKKKKAPyr/4Lnf8ANE/+43/7YV+Vdf0p/HT9lz4YftKf2J/wsfwz/wAJH/Yvn/YP9PurXyfO8vzf9RKm7PlR/ezjbxjJz8Vft6/sFfAn4LfsneOfGXg3wN/Y3iTTfsP2S9/te/n8vzL+3if5JZ2Q5SRxypxnI5ANAH5A1/VRX8q9f1UUAFFFfAH/AAVb/aj+J/7Nf/Crv+FceJv+Ec/tr+1Pt/8AoFrded5P2Tyv9fE+3HmyfdxndznAwAeq/wDBUf8A5MT+Jv8A3DP/AE6WlfgDXv8A8Uv29fjt8afAmp+DfGXjn+2fDepeV9rsv7IsIPM8uVJU+eKBXGHjQ8MM4weCRXgFAH9VFFFfkB+3r+3r8dvgt+1j458G+DfHP9jeG9N+w/ZLL+yLCfy/MsLeV/nlgZzl5HPLHGcDgAUAfr/Xyr/wVH/5MT+Jv/cM/wDTpaV5V/wSk/aj+J/7Sn/C0f8AhY/ib/hI/wCxf7L+wf6Ba2vk+d9r83/URJuz5Uf3s428Yyc+q/8ABUf/AJMT+Jv/AHDP/TpaUAfgDX9VFfyr1/VRQAUV+QH7ev7evx2+C37WPjnwb4N8c/2N4b037D9ksv7IsJ/L8ywt5X+eWBnOXkc8scZwOABXgH/D0f8Aad/6Kb/5QNL/APkagD9VP+Co/wDyYn8Tf+4Z/wCnS0r8Aa9/+KX7evx2+NPgTU/BvjLxz/bPhvUvK+12X9kWEHmeXKkqfPFArjDxoeGGcYPBIrwCgD+qiiiigAooooAKKKKACvlX/gqP/wAmJ/E3/uGf+nS0r6qr5V/4Kj/8mJ/E3/uGf+nS0oA/AGv1U/4cY/8AVbP/AC1P/u2vyrr+qigD8q/+HGP/AFWz/wAtT/7to/4cY/8AVbP/AC1P/u2vtT4pft6/An4LeO9T8G+MvHP9jeJNN8r7XZf2Rfz+X5kSSp88UDIcpIh4Y4zg8giuV/4ej/sxf9FN/wDKBqn/AMjUAfKv/DjH/qtn/lqf/dtH/DjH/qtn/lqf/dtfVX/D0f8AZi/6Kb/5QNU/+RqP+Ho/7MX/AEU3/wAoGqf/ACNQB8q/8OMf+q2f+Wp/9218AftR/Av/AIZr+O3ib4cf23/wkf8AYv2X/iZ/ZPsvnedaxT/6re+3Hm7fvHO3PGcD+lOvwB/4Kj/8n2fE3/uGf+mu0oA+qv8Aghj/AM1s/wC4J/7f19//ALUfx0/4Zr+BPib4j/2J/wAJH/Yv2X/iWfa/svneddRQf63Y+3Hm7vunO3HGcj4A/wCCGP8AzWz/ALgn/t/X1V/wVH/5MT+Jv/cM/wDTpaUAfKv/AA/O/wCqJ/8Al1//AHFR/wAOMf8Aqtn/AJan/wB21+Vdfv8Af8PR/wBmL/opv/lA1T/5GoA9V/Zc+Bf/AAzX8CfDPw4/tv8A4SP+xftX/Ez+yfZfO866ln/1W99uPN2/eOdueM4HlX7c/wC3P/wxd/whP/FE/wDCY/8ACS/bv+Yt9h+zfZ/s/wD0wl37vtHtjb3zwf8AD0f9mL/opv8A5QNU/wDkavgD/gq3+1H8MP2lP+FXf8K48Tf8JH/Yv9qfb/8AQLq18nzvsnlf6+JN2fKk+7nG3nGRkAP2o/8Agq3/AMNKfAnxN8OP+FXf8I5/bX2X/iZ/8JD9q8nybqKf/VfZU3Z8rb94Y3Z5xg/AFdV8Lfhb4n+NPjvTPBvg3TP7Z8Sal5v2Sy+0RQeZ5cTyv88rKgwkbnlhnGByQK+gP+HXH7Tv/RMv/K/pf/yTQB9Vf8OMf+q2f+Wp/wDdtfAH7UfwL/4Zr+O3ib4cf23/AMJH/Yv2X/iZ/ZPsvnedaxT/AOq3vtx5u37xztzxnA/an/h6P+zF/wBFN/8AKBqn/wAjV8AftR/sufE/9tH47eJvjL8GvDP/AAmPw28S/Zf7K1v7fa2P2n7PaxWs37m6limTbNbyp86DO3IypBIB6r/wQx/5rZ/3BP8A2/r7/wD2o/jp/wAM1/AnxN8R/wCxP+Ej/sX7L/xLPtf2XzvOuooP9bsfbjzd33TnbjjOR8AfsMf8a1/+E2/4aO/4t1/wmn2H+wf+Yp9s+x/aPtP/AB4+f5ez7Xb/AOs27t/y52tj1X9qP9qP4Yfto/AnxN8Gvg14m/4TH4k+Jfsv9laJ9gurH7T9nuorqb99dRRQptht5X+dxnbgZYgEA8q/4fnf9UT/APLr/wDuKvyrr6q/4dcftO/9Ey/8r+l//JNH/Drj9p3/AKJl/wCV/S//AJJoA9V/Zc/4JSf8NKfAnwz8R/8AhaP/AAjn9tfav+JZ/wAI99q8nybqWD/W/ak3Z8rd90Y3Y5xk+q/8OMf+q2f+Wp/9219qfsFfC3xP8Fv2TvA3g3xlpn9jeJNN+3fa7L7RFP5fmX9xKnzxMyHKSIeGOM4PIIrq/jp+1H8MP2a/7E/4WP4m/wCEc/trz/sH+gXV153k+X5v+oifbjzY/vYzu4zg4APyr/aj/wCCUn/DNfwJ8TfEf/haP/CR/wBi/Zf+JZ/wj32XzvOuooP9b9qfbjzd33TnbjjOR8AV+v37ev7evwJ+NP7J3jnwb4N8c/2z4k1L7D9ksv7Iv4PM8u/t5X+eWBUGEjc8sM4wOSBX5A0Af1UUUUUAfKv7c/7c/wDwxd/whP8AxRP/AAmP/CS/bv8AmLfYfs32f7P/ANMJd+77R7Y2988fKv8Aw3P/AMPKP+Mcf+EJ/wCFdf8ACaf8zL/a39qfY/sf+n/8e3kQeZv+yeX/AKxdu/dzt2n1X/gq3+y58T/2lP8AhV3/AArjwz/wkf8AYv8Aan2//T7W18nzvsnlf6+VN2fKk+7nG3nGRn5//YK/YK+O3wW/ax8DeMvGXgb+xvDem/bvtd7/AGvYT+X5lhcRJ8kU7OcvIg4U4zk8AmgDq/8Ahxj/ANVs/wDLU/8Au2j/AIfnf9UT/wDLr/8AuKv1Ur+VegD9VP8Ah+d/1RP/AMuv/wC4qP8AlNH/ANUd/wCFa/8Acc/tH+0P/AbyvL+wf7e7zf4dvzflXX6qf8EMf+a2f9wT/wBv6APKv2o/+CUn/DNfwJ8TfEf/AIWj/wAJH/Yv2X/iWf8ACPfZfO866ig/1v2p9uPN3fdOduOM5HwBX7/f8FR/+TE/ib/3DP8A06WlfgDQB/VRXwB+1H/wSk/4aU+O3ib4j/8AC0f+Ec/tr7L/AMSz/hHvtXk+TaxQf637Um7PlbvujG7HOMn1X/h6P+zF/wBFN/8AKBqn/wAjUf8AD0f9mL/opv8A5QNU/wDkagA/YY/YY/4Yu/4Tb/itv+Ex/wCEl+w/8wn7D9m+z/aP+m8u/d9o9sbe+eD/AIKj/wDJifxN/wC4Z/6dLSj/AIej/sxf9FN/8oGqf/I1fP8A+3r+3r8CfjT+yd458G+DfHP9s+JNS+w/ZLL+yL+DzPLv7eV/nlgVBhI3PLDOMDkgUAfkDX9VFfyr1+/3/D0f9mL/AKKb/wCUDVP/AJGoA8q/aj/4JSf8NKfHbxN8R/8AhaP/AAjn9tfZf+JZ/wAI99q8nybWKD/W/ak3Z8rd90Y3Y5xk/AH7c/7DH/DF3/CE/wDFbf8ACY/8JL9u/wCYT9h+zfZ/s/8A03l37vtHtjb3zx+6fwt+KXhj40+BNM8ZeDdT/tnw3qXm/ZL37PLB5nlyvE/ySqrjDxuOVGcZHBBr81v+C53/ADRP/uN/+2FAH5V0V1Xwt+Fvif40+O9M8G+DdM/tnxJqXm/ZLL7RFB5nlxPK/wA8rKgwkbnlhnGByQK+gP8Ah1x+07/0TL/yv6X/APJNAH7/AFFFFABRRRQAUUUUAFfKv/BUf/kxP4m/9wz/ANOlpX1VXyr/AMFR/wDkxP4m/wDcM/8ATpaUAfgDX9VFfyr1/VRQB+AP/BUf/k+z4m/9wz/012lfKtfVX/BUf/k+z4m/9wz/ANNdpXyrQAUUUUAf1UV+AP8AwVH/AOT7Pib/ANwz/wBNdpX7/V+AP/BUf/k+z4m/9wz/ANNdpQB9Vf8ABDH/AJrZ/wBwT/2/r6q/4Kj/APJifxN/7hn/AKdLSvlX/ghj/wA1s/7gn/t/X6qUAfyr0V/VRRQB/KvRX9VFflX/AMFzv+aJ/wDcb/8AbCgD5V/4Jcf8n2fDL/uJ/wDpru6/f6v5V6KACv3+/wCCXH/Jifwy/wC4n/6dLuvwBooA/VT/AILnf80T/wC43/7YV8q/8EuP+T7Phl/3E/8A013dfVX/AAQx/wCa2f8AcE/9v6/VSgAoor+VegD+qivyr/4Lnf8ANE/+43/7YV9Vf8EuP+TE/hl/3E//AE6XdfKv/Bc7/mif/cb/APbCgD8q6K+qv+CXH/J9nwy/7if/AKa7uv3+oAKK/lXr9/v+CXH/ACYn8Mv+4n/6dLugD6qooooAK/lXr+qiv5V6ACv1U/4IY/8ANbP+4J/7f19Vf8EuP+TE/hl/3E//AE6XdfVVAHyr/wAFR/8AkxP4m/8AcM/9OlpX4A1/VRRQB/KvRRX7/f8ABLj/AJMT+GX/AHE//Tpd0AfgDRX6qf8ABc7/AJon/wBxv/2wr5V/4Jcf8n2fDL/uJ/8Apru6APlWiv6qK/lXoA/f7/glx/yYn8Mv+4n/AOnS7r5V/wCC53/NE/8AuN/+2FfVX/BLj/kxP4Zf9xP/ANOl3Xyr/wAFzv8Amif/AHG//bCgD5V/4Jcf8n2fDL/uJ/8Apru6/f6v5V6KAP6qKKKKACiiigAooooAK+Vf+Co//JifxN/7hn/p0tK+qq+Vf+Co/wDyYn8Tf+4Z/wCnS0oA/AGv6qK/lXr+qigD8Af+Co//ACfZ8Tf+4Z/6a7SvlWv2p/aj/wCCUn/DSnx28TfEf/haP/COf219l/4ln/CPfavJ8m1ig/1v2pN2fK3fdGN2OcZPlX/DjH/qtn/lqf8A3bQB+VdFfqp/w4x/6rZ/5an/AN20f8OMf+q2f+Wp/wDdtAH6qV+AP/BUf/k+z4m/9wz/ANNdpX7/AFfgD/wVH/5Ps+Jv/cM/9NdpQB9Vf8EMf+a2f9wT/wBv6+1P29fil4n+C37J3jnxl4N1P+xvEmm/Yfsl79nin8vzL+3if5JVZDlJHHKnGcjkA18V/wDBDH/mtn/cE/8Ab+vv/wDaj+Bf/DSnwJ8TfDj+2/8AhHP7a+y/8TP7J9q8nybqKf8A1W9N2fK2/eGN2ecYIB+K3/D0f9p3/opv/lA0v/5Go/4ej/tO/wDRTf8AygaX/wDI1fVX/DjH/qtn/lqf/dtH/DjH/qtn/lqf/dtAH2p+wV8UvE/xp/ZO8DeMvGWp/wBs+JNS+3fa737PFB5nl39xEnyRKqDCRoOFGcZPJJr4r/4Lnf8ANE/+43/7YV9//sufAv8A4Zr+BPhn4cf23/wkf9i/av8AiZ/ZPsvneddSz/6re+3Hm7fvHO3PGcDyr9uf9hj/AIbR/wCEJ/4rb/hDv+Ea+3f8wn7d9p+0fZ/+m8Wzb9n987u2OQD8AaK/VT/hxj/1Wz/y1P8A7to/4cY/9Vs/8tT/AO7aAPqr/h1x+zF/0TL/AMr+qf8AyTR/w64/Zi/6Jl/5X9U/+Sa+qqKAPyr/AG5/+Na//CE/8M4/8W6/4TT7d/b3/MU+2fY/s/2b/j+8/wAvZ9ruP9Xt3b/mztXHKfsFft6/Hb40/tY+BvBvjLxz/bPhvUvt32uy/siwg8zy7C4lT54oFcYeNDwwzjB4JFdX/wAFzv8Amif/AHG//bCvlX/glx/yfZ8Mv+4n/wCmu7oA/f6vlX/h1x+zF/0TL/yv6p/8k19VUUAcp8Lfhb4Y+C3gTTPBvg3TP7G8N6b5v2Sy+0Sz+X5kryv88rM5y8jnljjOBwAK5X46fsufDD9pT+xP+Fj+Gf8AhI/7F8/7B/p91a+T53l+b/qJU3Z8qP72cbeMZOfVa+Vf25/25/8Ahi7/AIQn/iif+Ex/4SX7d/zFvsP2b7P9n/6YS7932j2xt754APKv2o/2XPhh+xd8CfE3xl+DXhn/AIQ74k+Gvsv9la39vur77N9ouorWb9zdSywvuhuJU+dDjdkYYAj4A/4ej/tO/wDRTf8AygaX/wDI1fVX/Dc//Dyj/jHH/hCf+Fdf8Jp/zMv9rf2p9j+x/wCn/wDHt5EHmb/snl/6xdu/dzt2k/4cY/8AVbP/AC1P/u2gD8q6/f7/AIJcf8mJ/DL/ALif/p0u6/AGvv8A/Zc/4Kt/8M1/Anwz8OP+FXf8JH/Yv2r/AImf/CQ/ZfO866ln/wBV9lfbjzdv3jnbnjOAAftTRXyr+wx+3P8A8No/8Jt/xRP/AAh3/CNfYf8AmLfbvtP2j7R/0wi2bfs/vnd2xz9VUAFfyr1/VRX8q9AH7/f8EuP+TE/hl/3E/wD06XdfVVfKv/BLj/kxP4Zf9xP/ANOl3R+3P+3P/wAMXf8ACE/8UT/wmP8Awkv27/mLfYfs32f7P/0wl37vtHtjb3zwAdV+3r8UvE/wW/ZO8c+MvBup/wBjeJNN+w/ZL37PFP5fmX9vE/ySqyHKSOOVOM5HIBr8gf8Ah6P+07/0U3/ygaX/API1eq/tR/8ABVv/AIaU+BPib4cf8Ku/4Rz+2vsv/Ez/AOEh+1eT5N1FP/qvsqbs+Vt+8Mbs84wfgCgAr9/v+CXH/Jifwy/7if8A6dLuvlX/AIcY/wDVbP8Ay1P/ALtr7/8A2XPgX/wzX8CfDPw4/tv/AISP+xftX/Ez+yfZfO866ln/ANVvfbjzdv3jnbnjOAAfAH/Bc7/mif8A3G//AGwr81fhb8UvE/wW8d6Z4y8G6n/Y3iTTfN+yXv2eKfy/MieJ/klVkOUkccqcZyOQDX6Vf8Fzv+aJ/wDcb/8AbCvgD9lz4F/8NKfHbwz8OP7b/wCEc/tr7V/xM/sn2ryfJtZZ/wDVb03Z8rb94Y3Z5xggHqv/AA9H/ad/6Kb/AOUDS/8A5Gr5Vr9VP+HGP/VbP/LU/wDu2j/hxj/1Wz/y1P8A7toA+qv+CXH/ACYn8Mv+4n/6dLuvVfjp+y58MP2lP7E/4WP4Z/4SP+xfP+wf6fdWvk+d5fm/6iVN2fKj+9nG3jGTk/Zc+Bf/AAzX8CfDPw4/tv8A4SP+xftX/Ez+yfZfO866ln/1W99uPN2/eOdueM4HlX7c/wC3P/wxd/whP/FE/wDCY/8ACS/bv+Yt9h+zfZ/s/wD0wl37vtHtjb3zwAfP/wC3r+wV8Cfgt+yd458ZeDfA39jeJNN+w/ZL3+17+fy/Mv7eJ/klnZDlJHHKnGcjkA1+QNfqp/w3P/w8o/4xx/4Qn/hXX/Caf8zL/a39qfY/sf8Ap/8Ax7eRB5m/7J5f+sXbv3c7dpP+HGP/AFWz/wAtT/7toA/VSiiigAooooAKKKKACvlX/gqP/wAmJ/E3/uGf+nS0r6qr5V/4Kj/8mJ/E3/uGf+nS0oA/AGv3+/4ej/sxf9FN/wDKBqn/AMjV+ANFAH7/AH/D0f8AZi/6Kb/5QNU/+RqP+Ho/7MX/AEU3/wAoGqf/ACNX4A0UAfv9/wAPR/2Yv+im/wDlA1T/AORqP+Ho/wCzF/0U3/ygap/8jV+ANFAH7/f8PR/2Yv8Aopv/AJQNU/8AkavyA/b1+KXhj40/tY+OfGXg3U/7Z8N6l9h+yXv2eWDzPLsLeJ/klVXGHjccqM4yOCDXgFFAH6qf8EMf+a2f9wT/ANv6/VSvyr/4IY/81s/7gn/t/X6qUAFfKv8Aw9H/AGYv+im/+UDVP/kavqqv5V6AP6ffhb8UvDHxp8CaZ4y8G6n/AGz4b1Lzfsl79nlg8zy5Xif5JVVxh43HKjOMjgg1yvx0/aj+GH7Nf9if8LH8Tf8ACOf215/2D/QLq687yfL83/URPtx5sf3sZ3cZwceVf8EuP+TE/hl/3E//AE6XdfKv/Bc7/mif/cb/APbCgD6q/wCHo/7MX/RTf/KBqn/yNR/w9H/Zi/6Kb/5QNU/+Rq/AGigD9/v+Ho/7MX/RTf8Aygap/wDI1e//AAt+KXhj40+BNM8ZeDdT/tnw3qXm/ZL37PLB5nlyvE/ySqrjDxuOVGcZHBBr+YKv3+/4Jcf8mJ/DL/uJ/wDp0u6APlX/AILnf80T/wC43/7YV8VfsFfFLwx8Fv2sfA3jLxlqf9jeG9N+3fa737PLP5fmWFxEnyRKznLyIOFOM5PAJr7V/wCC53/NE/8AuN/+2FflXQB+/wB/w9H/AGYv+im/+UDVP/kaj/h6P+zF/wBFN/8AKBqn/wAjV+ANFAH9Pvwt+KXhj40+BNM8ZeDdT/tnw3qXm/ZL37PLB5nlyvE/ySqrjDxuOVGcZHBBr81v+C53/NE/+43/AO2FfVX/AAS4/wCTE/hl/wBxP/06XdfKv/Bc7/mif/cb/wDbCgD5V/4Jcf8AJ9nwy/7if/pru6/f6vwB/wCCXH/J9nwy/wC4n/6a7uv3+oA/AH/h1x+07/0TL/yv6X/8k0f8OuP2nf8AomX/AJX9L/8Akmv3+ooA+AP+CUn7LnxP/Zr/AOFo/wDCx/DP/COf21/Zf2D/AE+1uvO8n7X5v+olfbjzY/vYzu4zg4+/6KKACv5V6/qor+VegD9/v+CXH/Jifwy/7if/AKdLuvKv+Crf7LnxP/aU/wCFXf8ACuPDP/CR/wBi/wBqfb/9PtbXyfO+yeV/r5U3Z8qT7ucbecZGfVf+CXH/ACYn8Mv+4n/6dLuvqqgD+db4pfsFfHb4LeBNT8ZeMvA39jeG9N8r7Xe/2vYT+X5kqRJ8kU7OcvIg4U4zk8AmvAK/f7/gqP8A8mJ/E3/uGf8Ap0tK/AGgD+qivn/4pft6/An4LeO9T8G+MvHP9jeJNN8r7XZf2Rfz+X5kSSp88UDIcpIh4Y4zg8givoCvwB/4Kj/8n2fE3/uGf+mu0oA+qv25/wDjZR/whP8Awzj/AMXF/wCEL+3f29/zC/sf2z7P9m/4/vI8zf8AZLj/AFe7bs+bG5c8p+wV+wV8dvgt+1j4G8ZeMvA39jeG9N+3fa73+17Cfy/MsLiJPkinZzl5EHCnGcngE11f/BDH/mtn/cE/9v6/VSgAooooAK/Kv/gud/zRP/uN/wDthX6qV+Vf/Bc7/mif/cb/APbCgD4q/YK+KXhj4LftY+BvGXjLU/7G8N6b9u+13v2eWfy/MsLiJPkiVnOXkQcKcZyeATX6/wD/AA9H/Zi/6Kb/AOUDVP8A5Gr8AaKAP6qKKKKACiiigAooooAKKKKACiiigAooooAKKKKACiiigAooooAKKKKACiiigAooooAKKKKACiiigAooooAKKKKACiiigAooooAKKKKACiiigAooooAKKKKACiiigAooooAKKKKACiiigAooooAKKKKACiiigAooooAKKKKACiiigAooooAKKKKACiiigAooooAKKKKACiiigAooooAKKKKACiiigAooooAKKKKACiiigAooooAKKKKACiiigAooooAKKKKACiiigAooooAKKKKACiiigAooooAKKKKACiiigD//2Q==;" vertex="1" parent="1">
          <mxGeometry x="185" y="185" width="90" height="90" as="geometry" />
        </mxCell>
      </root>
    </mxGraphModel>
  </diagram>
</mxfile>
